#N canvas 132 59 1087 740 10;
#X obj 449 281 popup 124 25 #ffffff effect none negative solarize sketch
denoise emboss oilpaint hatch gpen pastel watercolor film blur saturation
colorswap washedout posterise colorpoint colorbalance cartoon deinterlace1
deinterlace2;
#X msg 650 30 options none negative solarize sketch denoise emboss
oilpaint hatch gpen pastel watercolor film blur saturation colorswap
washedout posterise colorpoint colorbalance cartoon deinterlace1 deinterlace2
;
#X obj 594 6 loadbang;
#X obj 257 670 tabwrite \$0-cameramemory;
#X msg 257 611 \$1 0;
#X obj 257 638 unpack;
#X obj 603 777 outlet;
#X obj 473 103 cnv 15 100 60 empty empty storage 20 12 1 10 -261682
-66577 0;
#X floatatom 510 120 5 0 127 0 - - -;
#X obj 483 121 bng 15 250 50 0 empty empty empty 17 7 0 10 -4034 -1
-1;
#X obj 551 122 bng 15 250 50 0 empty empty empty 17 7 0 10 -258113
-1 -1;
#N canvas 1006 381 538 443 storagesystem 0;
#X obj 106 58 i 0;
#X obj 11 241 tabread \$0-cameramemory;
#X obj 118 205 +;
#X obj 106 84 t b f;
#X obj 75 134 - 1;
#X obj 270 53 i 0;
#X obj 269 228 tabread \$0-cameramemory;
#X obj 421 227 +;
#X obj 270 79 t b f;
#X obj 269 154 - 1;
#X obj 269 274 tabwrite \$0-cameramemory;
#X obj 269 181 t f f;
#X obj 121 14 inlet;
#X obj 81 14 inlet;
#X obj 39 14 inlet;
#X obj 64 387 outlet;
#X obj 64 362 pack;
#X obj 64 332 i;
#X obj 75 165 t f f;
#X obj 64 277 t b f;
#X obj 42 109 uzi 16;
#X obj 133 134 * 16;
#X obj 236 112 uzi 16;
#X obj 436 185 * 16;
#X connect 0 0 3 0;
#X connect 1 0 19 0;
#X connect 2 0 1 0;
#X connect 3 0 20 0;
#X connect 3 1 21 0;
#X connect 4 0 18 0;
#X connect 5 0 8 0;
#X connect 6 0 10 0;
#X connect 7 0 10 1;
#X connect 8 0 22 0;
#X connect 8 1 23 0;
#X connect 9 0 11 0;
#X connect 11 0 6 0;
#X connect 11 1 7 0;
#X connect 12 0 0 1;
#X connect 12 0 5 1;
#X connect 13 0 5 0;
#X connect 14 0 0 0;
#X connect 16 0 15 0;
#X connect 17 0 16 0;
#X connect 18 0 2 0;
#X connect 18 1 17 1;
#X connect 19 0 17 0;
#X connect 19 1 16 1;
#X connect 20 2 4 0;
#X connect 21 0 2 1;
#X connect 22 2 9 0;
#X connect 23 0 7 1;
#X restore 704 198 pd storagesystem;
#X obj 472 167 cnv 15 100 110 empty empty camera_settings 20 12 1 10
-233017 -66577 0;
#X obj 507 188 vsl 10 80 -100 100 0 0 empty empty empty 0 -9 0 10 -262144
-1 -1 0 1;
#X msg 707 356 0;
#X obj 494 189 vsl 10 80 -100 100 0 0 empty empty empty 0 -9 0 10 -262144
-1 -1 0 1;
#X obj 481 188 vsl 10 80 -100 100 0 0 empty empty empty 0 -9 0 10 -262144
-1 -1 0 1;
#X obj 551 144 bng 15 250 50 0 empty empty empty 0 -6 0 8 -261234 -1
-1;
#X obj 901 187 savepanel;
#X msg 901 210 \; \$0-cameramemory write \$1;
#X obj 483 144 bng 15 250 50 0 empty empty empty 0 -6 0 8 -204786 -1
-1;
#X obj 901 245 openpanel;
#X msg 901 268 \; \$0-cameramemory read \$1;
#X obj 525 251 bng 15 250 50 0 empty empty empty 0 -6 0 8 -262144 -1
-1;
#X text 498 143 < file >;
#X obj 266 104 cnv 15 200 205 empty empty preview 20 0 1 10 -204800
-66577 0;
#X obj 270 110 grid position 160 0 1990 90 0 1990 1 1 1 10 10 477 273
;
#X floatatom 270 201 5 0 3000 0 - - -;
#X floatatom 398 201 5 -100 3000 0 - - -;
#X obj 301 201 expr 1930 - $f1;
#X floatatom 289 219 5 0 3000 0 - - -;
#X floatatom 366 222 5 -100 3000 0 - - -;
#X obj 433 121 vsl 10 80 0 255 0 0 empty empty empty 0 -9 0 10 -262144
-1 -1 5762 1;
#X obj 724 403 int;
#X obj 58 674 int;
#X obj 156 534 int;
#X obj 19 546 int;
#X text 483 200 s s s;
#X text 482 227 t a u;
#X text 482 213 a h h;
#X obj 409 229 tgl 15 0 empty empty empty 17 7 0 10 -262144 -1 -1 0
1;
#X obj 411 255 tgl 15 0 empty empty empty 17 7 0 10 -262144 -1 -1 0
1;
#X text 408 213 horz flip;
#X text 406 239 vert flip;
#X obj 408 285 tgl 15 0 empty empty empty 17 7 0 10 -262144 -1 -1 0
1;
#X text 405 266 fullscreen;
#X obj 706 476 int;
#X obj 740 530 int;
#X obj 747 578 int;
#X obj 277 242 vsl 10 40 0 0.95 0 0 empty empty empty 0 -9 0 10 -262144
-1 -1 0 1;
#X obj 312 242 vsl 10 40 0 0.95 0 0 empty empty empty 0 -9 0 10 -262144
-1 -1 0 1;
#X obj 346 242 vsl 10 40 0.05 1 0 0 empty empty empty 0 -9 0 10 -262144
-1 -1 1700 1;
#X obj 377 242 vsl 10 40 0.05 1 0 0 empty empty empty 0 -9 0 10 -262144
-1 -1 0 1;
#X floatatom 269 290 5 0 0 0 - - -;
#X floatatom 304 290 5 0 0 0 - - -;
#X floatatom 338 290 5 0 0 0 - - -;
#X floatatom 372 290 5 0 0 0 - - -;
#X obj 446 184 tgl 20 0 empty empty empty 17 7 0 10 -204786 -1 -1 1
1;
#X text 435 201 start;
#X obj 764 362 int;
#X msg 552 68 name effect;
#X msg 758 427 \$1 1;
#X msg 309 613 \$1 2;
#X msg 347 613 \$1 3;
#X obj 760 244 t b f;
#X obj 717 278 i;
#X obj 766 297 pack;
#X msg 357 638 \$1 4;
#X msg 395 638 \$1 5;
#X msg 427 638 \$1 6;
#X msg 108 606 \$1 7;
#X msg 156 605 \$1 8;
#X msg 200 606 \$1 9;
#X obj 530 105 bng 10 250 50 0 empty empty + 2 4 1 12 -262144 -1 -1
;
#X obj 556 105 bng 10 250 50 0 empty empty - 3 4 1 12 -262144 -1 -1
;
#X obj 706 131 i;
#X obj 735 131 i;
#X obj 735 155 - 1;
#X obj 706 155 + 1;
#X floatatom 891 316 5 0 0 0 - - -;
#X floatatom 853 316 5 0 0 0 - - -;
#X msg 766 323 values \$1 \$2;
#X obj 798 275 expr 1930 - $f1;
#X text 327 219 scale;
#X obj 702 219 route 0 1 2 3 4 5 6 7 8 9 10 11;
#X msg 505 604 \$1 10;
#X msg 557 610 \$1 11;
#X text 431 103 alpha;
#X obj 77 483 table \$0-cameramemory 2048;
#X text 320 228 distort;
#X text 300 272 >;
#X text 267 272 >;
#X text 356 246 <;
#X text 392 245 <;
#X obj 107 -2 inlet;
#X text 525 228 Auto;
#X obj 122 735 print;
#X obj 530 201 bng 15 250 50 0 empty empty empty 17 7 0 10 -262144
-1 -1;
#X text 529 180 FX;
#X obj 554 201 bng 15 250 50 0 empty empty empty 17 7 0 10 -262144
-1 -1;
#X text 521 213 none neg;
#X obj 154 -3 inlet;
#X obj 208 -1 inlet;
#X obj 556 7 inlet;
#X obj 248 -1 inlet;
#X obj 297 1 inlet;
#X obj 347 6 inlet;
#X obj 391 6 inlet;
#X obj 451 12 inlet;
#X msg 28 301 /camera effect 0;
#X msg 27 328 /camera effect 1;
#X msg 19 578 /camera saturation \$1;
#X msg 168 559 /camera sharpness \$1;
#X msg 134 658 /camera effect \$1;
#X msg 58 697 /camera shutter \$1;
#X msg 374 531 /camera x \$1;
#X msg 481 647 /camera y \$1;
#X msg 565 641 /camera width \$1;
#X msg 723 631 /camera height \$1;
#X msg 748 603 send /camera vflip \$1;
#X msg 741 555 send /camera hflip \$1;
#X msg 707 500 send /camera fullscreen \$1;
#X msg 724 452 send /camera alpha \$1;
#X msg 764 384 send /camera switch \$1;
#X obj 548 437 int;
#X obj 475 517 int;
#X msg 721 655 /camera zoomx \$1;
#X msg 731 678 /camera zoomy \$1;
#X msg 749 703 /camera zoomw \$1;
#X msg 764 726 /camera zoomh \$1;
#X connect 0 0 113 0;
#X connect 0 0 4 0;
#X connect 1 0 0 0;
#X connect 2 0 1 0;
#X connect 2 0 60 0;
#X connect 4 0 5 0;
#X connect 5 0 3 0;
#X connect 5 1 3 1;
#X connect 8 0 11 2;
#X connect 8 0 75 1;
#X connect 8 0 76 1;
#X connect 9 0 11 0;
#X connect 10 0 11 1;
#X connect 11 0 84 0;
#X connect 13 0 34 0;
#X connect 14 0 13 0;
#X connect 15 0 35 0;
#X connect 16 0 36 0;
#X connect 17 0 18 0;
#X connect 18 0 19 0;
#X connect 20 0 21 0;
#X connect 21 0 22 0;
#X connect 23 0 14 0;
#X connect 26 0 27 0;
#X connect 26 1 29 0;
#X connect 27 0 115 0;
#X connect 27 0 62 0;
#X connect 28 0 116 0;
#X connect 28 0 63 0;
#X connect 29 0 28 0;
#X connect 30 0 85 0;
#X connect 30 0 125 0;
#X connect 31 0 86 0;
#X connect 31 0 124 0;
#X connect 32 0 33 0;
#X connect 33 0 122 0;
#X connect 33 0 61 0;
#X connect 34 0 114 0;
#X connect 34 0 72 0;
#X connect 35 0 112 0;
#X connect 35 0 71 0;
#X connect 36 0 111 0;
#X connect 36 0 70 0;
#X connect 40 0 47 0;
#X connect 41 0 48 0;
#X connect 44 0 46 0;
#X connect 46 0 121 0;
#X connect 46 0 69 0;
#X connect 47 0 120 0;
#X connect 47 0 67 0;
#X connect 48 0 119 0;
#X connect 48 0 68 0;
#X connect 49 0 53 0;
#X connect 50 0 54 0;
#X connect 51 0 55 0;
#X connect 52 0 56 0;
#X connect 53 0 126 0;
#X connect 54 0 127 0;
#X connect 55 0 128 0;
#X connect 56 0 129 0;
#X connect 57 0 59 0;
#X connect 59 0 123 0;
#X connect 60 0 0 0;
#X connect 61 0 5 0;
#X connect 62 0 5 0;
#X connect 63 0 5 0;
#X connect 64 0 65 0;
#X connect 64 1 79 0;
#X connect 64 1 82 0;
#X connect 65 0 66 0;
#X connect 65 0 80 0;
#X connect 66 0 81 0;
#X connect 67 0 5 0;
#X connect 68 0 5 0;
#X connect 69 0 5 0;
#X connect 70 0 5 0;
#X connect 71 0 5 0;
#X connect 72 0 5 0;
#X connect 73 0 75 0;
#X connect 74 0 76 0;
#X connect 75 0 78 0;
#X connect 76 0 77 0;
#X connect 77 0 8 0;
#X connect 78 0 8 0;
#X connect 81 0 26 0;
#X connect 82 0 66 1;
#X connect 84 0 0 0;
#X connect 84 1 32 0;
#X connect 84 2 65 1;
#X connect 84 3 64 0;
#X connect 84 4 40 0;
#X connect 84 5 41 0;
#X connect 84 6 44 0;
#X connect 84 7 16 0;
#X connect 84 8 15 0;
#X connect 84 9 13 0;
#X connect 84 10 30 0;
#X connect 84 11 31 0;
#X connect 85 0 5 0;
#X connect 86 0 5 0;
#X connect 94 0 32 0;
#X connect 97 0 109 0;
#X connect 99 0 110 0;
#X connect 101 0 97 0;
#X connect 102 0 99 0;
#X connect 103 0 44 0;
#X connect 104 0 49 0;
#X connect 105 0 50 0;
#X connect 106 0 27 0;
#X connect 107 0 28 0;
#X connect 108 0 31 0;
#X connect 109 0 6 0;
#X connect 110 0 6 0;
#X connect 111 0 6 0;
#X connect 112 0 6 0;
#X connect 113 0 6 0;
#X connect 113 0 96 0;
#X connect 114 0 6 0;
#X connect 115 0 6 0;
#X connect 116 0 6 0;
#X connect 117 0 6 0;
#X connect 118 0 6 0;
#X connect 119 0 6 0;
#X connect 120 0 6 0;
#X connect 121 0 6 0;
#X connect 122 0 6 0;
#X connect 123 0 6 0;
#X connect 124 0 118 0;
#X connect 125 0 117 0;
#X connect 126 0 6 0;
#X connect 127 0 6 0;
#X connect 128 0 6 0;
#X connect 129 0 6 0;
#X coords 0 -1 1 1 320 210 2 260 100;
