#N canvas 0 93 1600 807 10;
#X obj 311 311 image fostex.gif;
#X obj 53 329 knob 24 24 0 127 0 0 empty knob1 empty 0 -8 0 8 -262144
-1 -1 0 1;
#X obj 101 329 knob 24 24 0 127 0 0 empty knob2 empty 0 -8 0 8 -262144
-1 -1 0 1;
#X obj 149 329 knob 24 24 0 127 0 0 empty knob3 empty 0 -8 0 8 -262144
-1 -1 0 1;
#X obj 55 447 vsl 22 128 0 127 0 0 empty fader1 empty 0 -9 0 10 -262144
-1 -1 8100 1;
#X obj 103 447 vsl 22 128 0 127 0 0 empty fader2 empty 0 -9 0 10 -262144
-1 -1 8500 1;
#X obj 151 447 vsl 22 128 0 127 0 0 empty fader3 empty 0 -9 0 10 -262144
-1 -1 7200 1;
#X obj 197 447 vsl 22 128 0 127 0 0 empty fader4 empty 0 -9 0 10 -262144
-1 -1 10300 1;
#X obj 244 447 vsl 22 128 0 127 0 0 empty fader5 empty 0 -9 0 10 -262144
-1 -1 5800 1;
#X obj 291 447 vsl 22 128 0 127 0 0 empty fader6 empty 0 -9 0 10 -262144
-1 -1 5000 1;
#X obj 337 447 vsl 22 128 0 127 0 0 empty fader7 empty 0 -9 0 10 -262144
-1 -1 6700 1;
#X obj 383 447 vsl 22 128 0 127 0 0 empty fader8 empty 0 -9 0 10 -262144
-1 -1 4600 1;
#X obj 460 446 vsl 22 128 0 127 0 0 empty fader0 empty 0 -9 0 10 -262144
-1 -1 0 1;
#X obj 196 329 knob 24 24 0 127 0 0 empty knob4 empty 0 -8 0 8 -262144
-1 -1 0 1;
#X obj 244 329 knob 24 24 0 127 0 0 empty knob5 empty 0 -8 0 8 -262144
-1 -1 0 1;
#X obj 291 329 knob 24 24 0 127 0 0 empty knob6 empty 0 -8 0 8 -262144
-1 -1 0 1;
#X obj 339 330 knob 24 24 0 127 0 0 empty knob7 empty 0 -8 0 8 -262144
-1 -1 0 1;
#X obj 386 331 knob 24 24 0 127 0 0 empty knob8 empty 0 -8 0 8 -262144
-1 -1 0 1;
#X obj 53 262 knob 24 24 0 127 0 0 empty knob9 empty 0 -8 0 8 -262144
-1 -1 0 1;
#X obj 102 262 knob 24 24 0 127 0 0 empty knob10 empty 0 -8 0 8 -262144
-1 -1 0 1;
#X obj 149 263 knob 24 24 0 127 0 0 empty knob11 empty 0 -8 0 8 -262144
-1 -1 0 1;
#X obj 197 263 knob 24 24 0 127 0 0 empty knob12 empty 0 -8 0 8 -262144
-1 -1 0 1;
#X obj 245 263 knob 24 24 0 127 0 0 empty knob13 empty 0 -8 0 8 -262144
-1 -1 0 1;
#X obj 292 264 knob 24 24 0 127 0 0 empty knob14 empty 0 -8 0 8 -262144
-1 -1 0 1;
#X obj 339 264 knob 24 24 0 127 0 0 empty knob15 empty 0 -8 0 8 -262144
-1 -1 0 1;
#X obj 387 265 knob 24 24 0 127 0 0 empty knob16 empty 0 -8 0 8 -262144
-1 -1 0 1;
#X obj 52 195 knob 24 24 0 127 0 0 empty knob17 empty 0 -8 0 8 -262144
-1 -1 0 1;
#X obj 101 196 knob 24 24 0 127 0 0 empty knob18 empty 0 -8 0 8 -262144
-1 -1 0 1;
#X obj 150 196 knob 24 24 0 127 0 0 empty knob19 empty 0 -8 0 8 -262144
-1 -1 0 1;
#X obj 197 196 knob 24 24 0 127 0 0 empty knob20 empty 0 -8 0 8 -262144
-1 -1 0 1;
#X obj 244 197 knob 24 24 0 127 0 0 empty knob21 empty 0 -8 0 8 -262144
-1 -1 0 1;
#X obj 292 197 knob 24 24 0 127 0 0 empty knob22 empty 0 -8 0 8 -262144
-1 -1 0 1;
#X obj 340 197 knob 24 24 0 127 0 0 empty knob23 empty 0 -8 0 8 -262144
-1 -1 0 1;
#X obj 387 198 knob 24 24 0 127 0 0 empty knob24 empty 0 -8 0 8 -262144
-1 -1 0 1;
#X obj 535 333 knob 24 24 0 127 0 0 empty knob25 empty 0 -8 0 8 -262144
-1 -1 0 1;
#X obj 52 126 knob 24 24 0 127 0 0 empty knob26 empty 0 -8 0 8 -262144
-1 -1 0 1;
#X obj 100 127 knob 24 24 0 127 0 0 empty knob27 empty 0 -8 0 8 -262144
-1 -1 0 1;
#X obj 149 129 knob 24 24 0 127 0 0 empty knob28 empty 0 -8 0 8 -262144
-1 -1 0 1;
#X obj 197 129 knob 24 24 0 127 0 0 empty knob29 empty 0 -8 0 8 -262144
-1 -1 0 1;
#X obj 245 129 knob 24 24 0 127 0 0 empty knob30 empty 0 -8 0 8 -262144
-1 -1 1141 1;
#X obj 293 130 knob 24 24 0 127 0 0 empty knob31 empty 0 -8 0 8 -262144
-1 -1 1141 1;
#X obj 341 130 knob 24 24 0 127 0 0 empty knob32 empty 0 -8 0 8 -262144
-1 -1 1141 1;
#X obj 389 131 knob 24 24 0 127 0 0 empty knob33 empty 0 -8 0 8 -262144
-1 -1 1141 1;
#X obj 444 131 knob 24 24 0 127 0 0 empty knob34 empty 0 -8 0 8 -262144
-1 -1 0 1;
#X obj 493 132 knob 24 24 0 127 0 0 empty knob35 empty 0 -8 0 8 -262144
-1 -1 0 1;
#X obj 487 332 knob 24 24 0 127 0 0 empty knob37 empty 0 -8 0 8 -262144
-1 -1 0 1;
#X obj 441 331 knob 24 24 0 127 0 0 empty knob36 empty 0 -8 0 8 -262144
-1 -1 0 1;
#X obj 441 266 knob 24 24 0 127 0 0 empty knob38 empty 0 -8 0 8 -262144
-1 -1 0 1;
#X obj 489 267 knob 24 24 0 127 0 0 empty knob39 empty 0 -8 0 8 -262144
-1 -1 0 1;
#X obj 443 199 knob 24 24 0 127 0 0 empty knob40 empty 0 -8 0 8 -262144
-1 -1 0 1;
#X obj 489 199 knob 24 24 0 127 0 0 empty knob41 empty 0 -8 0 8 -262144
-1 -1 0 1;
#X obj 10 -15 EaFostexMixTab;
#X obj 69 685 int;
#X obj 112 686 int;
#X obj -249 619 int;
#X obj -193 619 int;
#X msg 670 597 send /arduino S1P\$1;
#X msg 665 318 send /arduino A1V\$1;
#X obj 53 298 cnv 15 180 24 empty empty ___MOTOREN_-_CW___ 2 12 1 14
-203904 -66577 0;
#X text 30 264 CW;
#X text 28 331 CCW;
#X obj 55 582 cnv 15 180 25 empty empty SERVOS 20 12 1 16 -232576 -66577
0;
#X msg -249 644 \$1 22;
#X obj -142 724 unpack;
#X msg -193 644 \$1 23;
#X msg -143 644 \$1 24;
#X msg -92 646 \$1 25;
#X msg -47 646 \$1 26;
#X msg 8 645 \$1 27;
#X obj -143 618 int;
#X obj -92 619 int;
#X obj -47 619 int;
#X obj 8 619 int;
#X obj 668 638 s osc1;
#X obj 805 640 s osc2;
#X obj 947 638 s osc3;
#X obj 157 687 int;
#X msg 69 709 \$1 14;
#X msg 112 708 \$1 15;
#X msg 157 709 \$1 16;
#X obj 53 626 int;
#X obj 96 627 int;
#X obj 141 628 int;
#X msg 53 650 \$1 5;
#X msg 96 649 \$1 6;
#X msg 141 650 \$1 7;
#X obj 53 159 cnv 15 120 25 empty empty LED-Autotrigger-speed 4 12
1 11 -204786 -66577 0;
#X obj 49 231 cnv 15 120 25 empty empty LED-Gate-time 4 12 1 11 -204786
-66577 0;
#X obj 245 166 cnv 15 180 25 empty empty IR-Lamps 4 12 1 16 -261234
-66577 0;
#X msg 800 321 send /arduino A1V\$1;
#X obj 800 298 IRScale;
#X msg 935 320 send /arduino A1V\$1;
#X obj 665 295 IRScale;
#X obj 935 297 IRScale;
#X obj 661 414 MotorScale;
#X obj 801 414 MotorScale;
#X obj 938 418 MotorScale;
#X obj 662 457 MotorScale;
#X obj 802 457 MotorScale;
#X obj 941 460 MotorScale;
#X msg 661 436 send /arduino M1D0S\$1;
#X msg 662 479 send /arduino M1D1S\$1;
#X msg 802 437 send /arduino M1D0S\$1;
#X msg 802 478 send /arduino M1D1S\$1;
#X msg 938 438 send /arduino M1D0S\$1;
#X msg 940 479 send /arduino M1D1S\$1;
#X obj 669 574 ServoScale;
#X msg 807 595 send /arduino S1P\$1;
#X obj 807 572 ServoScale;
#X msg 947 594 send /arduino S1P\$1;
#X obj 947 571 ServoScale;
#X obj -144 750 ctlout;
#X msg -90 750 2;
#X obj -91 729 loadbang;
#X obj 245 582 cnv 15 180 25 empty empty Camera-Alpha 4 12 1 16 -257985
-66577 0;
#X obj 481 633 IRScale;
#X obj 402 635 IRScale;
#X obj 323 633 IRScale;
#X obj 200 685 int;
#X obj 192 628 int;
#X msg 192 650 \$1 8;
#X msg 200 707 \$1 17;
#X obj 54 360 cnv 15 180 24 empty empty ___MOTOREN_-_CCW___ 2 12 1
14 -203904 -66577 0;
#N canvas 230 211 1253 492 IRTrigger 0;
#X obj -453 44 key;
#X obj -454 124 t b b;
#X obj -455 144 delay 200;
#X msg -457 164 send /arduino A1V255;
#X msg -457 186 send /arduino A1V0;
#X obj -458 207 s osc1;
#X obj -323 205 s osc2;
#X obj -190 205 s osc3;
#X obj -323 126 t b b;
#X msg -322 165 send /arduino A1V255;
#X msg -322 185 send /arduino A1V0;
#X obj -193 124 t b b;
#X obj -193 143 delay 200;
#X msg -190 163 send /arduino A1V255;
#X msg -189 184 send /arduino A1V0;
#X obj -266 16 inlet;
#X obj -321 146 delay 200;
#X obj -265 38 * 10;
#X obj -265 59 + 100;
#X obj 121 118 t b b;
#X obj 119 138 delay 200;
#X msg 119 158 send /arduino A1V255;
#X msg 121 178 send /arduino A1V0;
#X obj 122 199 s osc1;
#X obj 254 196 s osc2;
#X obj 381 193 s osc3;
#X obj 251 117 t b b;
#X msg 251 156 send /arduino A1V255;
#X msg 253 177 send /arduino A1V0;
#X obj 379 112 t b b;
#X obj 380 132 delay 200;
#X msg 380 151 send /arduino A1V255;
#X msg 382 172 send /arduino A1V0;
#X obj 253 137 delay 200;
#X obj 269 37 inlet;
#X obj 269 59 * 10;
#X obj 271 82 + 100;
#X obj -453 63 select 55 56 57 48;
#X text -421 44 key 7 8 9 0 for IR blink;
#X obj -60 122 t b b;
#X obj -60 141 delay 200;
#X msg -58 162 send /arduino A1V255;
#X msg -56 182 send /arduino A1V0;
#X obj -57 203 s osc4;
#X text 142 63 key u i o p for ON;
#X obj 120 82 select 117 105 111 112;
#X obj 517 106 t b b;
#X obj 518 126 delay 200;
#X msg 518 145 send /arduino A1V255;
#X msg 520 166 send /arduino A1V0;
#X obj 519 187 s osc4;
#X connect 0 0 37 0;
#X connect 1 0 2 0;
#X connect 1 1 3 0;
#X connect 2 0 4 0;
#X connect 3 0 5 0;
#X connect 4 0 5 0;
#X connect 8 0 16 0;
#X connect 8 1 9 0;
#X connect 9 0 6 0;
#X connect 10 0 6 0;
#X connect 11 0 12 0;
#X connect 11 1 13 0;
#X connect 12 0 14 0;
#X connect 13 0 7 0;
#X connect 14 0 7 0;
#X connect 15 0 17 0;
#X connect 16 0 10 0;
#X connect 17 0 18 0;
#X connect 18 0 12 1;
#X connect 18 0 16 1;
#X connect 18 0 2 1;
#X connect 18 0 40 1;
#X connect 19 0 20 0;
#X connect 19 1 22 0;
#X connect 20 0 21 0;
#X connect 21 0 23 0;
#X connect 22 0 23 0;
#X connect 26 0 33 0;
#X connect 26 1 28 0;
#X connect 27 0 24 0;
#X connect 28 0 24 0;
#X connect 29 0 30 0;
#X connect 29 1 32 0;
#X connect 30 0 31 0;
#X connect 31 0 25 0;
#X connect 32 0 25 0;
#X connect 33 0 27 0;
#X connect 34 0 35 0;
#X connect 35 0 36 0;
#X connect 36 0 20 1;
#X connect 36 0 33 1;
#X connect 36 0 30 1;
#X connect 36 0 47 1;
#X connect 37 0 1 0;
#X connect 37 1 8 0;
#X connect 37 2 11 0;
#X connect 37 3 39 0;
#X connect 37 4 45 0;
#X connect 39 0 40 0;
#X connect 39 1 41 0;
#X connect 40 0 42 0;
#X connect 41 0 43 0;
#X connect 42 0 43 0;
#X connect 45 0 19 0;
#X connect 45 1 26 0;
#X connect 45 2 29 0;
#X connect 45 3 46 0;
#X connect 46 0 47 0;
#X connect 46 1 49 0;
#X connect 47 0 48 0;
#X connect 48 0 50 0;
#X connect 49 0 50 0;
#X restore 836 206 pd IRTrigger;
#X obj 439 296 cnv 1 100 25 empty empty IR_delay_ON/OFF 4 12 1 12 -261234
-66577 0;
#N canvas 284 216 1022 657 LEDTriggers 0;
#X obj 74 165 metro;
#X obj 120 137 expr ($f1 / 127 * 1000) + 100;
#X obj 52 110 moses 9;
#X msg 89 137 1;
#X msg 53 136 0;
#X obj 154 108 expr ($f1 / 127 * 1000) + 100;
#X obj 52 41 inlet;
#X obj 154 41 inlet;
#X obj 102 248 delay 100;
#X obj 74 198 t b b;
#X obj 369 565 noteout;
#X obj 71 362 unpack;
#X msg 48 296 40 127;
#X msg 102 316 40 0;
#X obj 508 552 s osc1;
#X obj 372 159 metro;
#X obj 418 131 expr ($f1 / 127 * 1000) + 100;
#X obj 350 104 moses 9;
#X msg 387 131 1;
#X msg 351 130 0;
#X obj 452 102 expr ($f1 / 127 * 1000) + 100;
#X obj 350 35 inlet;
#X obj 452 35 inlet;
#X obj 400 242 delay 100;
#X obj 372 192 t b b;
#X obj 369 356 unpack;
#X obj 563 551 s osc2;
#X msg 347 289 50 127;
#X msg 400 310 50 0;
#X obj 691 158 metro;
#X obj 737 130 expr ($f1 / 127 * 1000) + 100;
#X obj 669 103 moses 9;
#X msg 706 130 1;
#X msg 670 129 0;
#X obj 771 101 expr ($f1 / 127 * 1000) + 100;
#X obj 669 46 inlet;
#X obj 771 34 inlet;
#X obj 719 241 delay 100;
#X obj 691 191 t b b;
#X obj 688 355 unpack;
#X text 234 81 values under 9 switches of metro \, in case pot is dirty
;
#X obj 624 550 s osc3;
#X msg 666 288 47 127;
#X msg 719 309 47 0;
#X obj 551 18 key;
#X obj 551 37 select 49 50 51;
#X obj 539 204 select 113 119 101;
#X text 569 185 key q w e for ON;
#X text 582 18 key 1 2 3 for blink;
#X msg 162 326 send /arduino D1S1;
#X msg 168 357 send /arduino D1S0;
#X msg 460 320 send /arduino D2S1;
#X msg 466 351 send /arduino D2S0;
#X msg 779 319 send /arduino D3S1;
#X msg 785 350 send /arduino D3S0;
#X obj 679 549 s osc4;
#X connect 0 0 9 0;
#X connect 1 0 0 1;
#X connect 2 0 4 0;
#X connect 2 1 3 0;
#X connect 3 0 0 0;
#X connect 4 0 0 0;
#X connect 5 0 8 1;
#X connect 6 0 2 0;
#X connect 6 0 1 0;
#X connect 7 0 5 0;
#X connect 8 0 13 0;
#X connect 8 0 50 0;
#X connect 9 0 8 0;
#X connect 9 1 12 0;
#X connect 9 1 49 0;
#X connect 11 0 10 0;
#X connect 11 1 10 1;
#X connect 12 0 11 0;
#X connect 13 0 11 0;
#X connect 15 0 24 0;
#X connect 16 0 15 1;
#X connect 17 0 19 0;
#X connect 17 1 18 0;
#X connect 18 0 15 0;
#X connect 19 0 15 0;
#X connect 20 0 23 1;
#X connect 21 0 17 0;
#X connect 21 0 16 0;
#X connect 22 0 20 0;
#X connect 23 0 28 0;
#X connect 23 0 52 0;
#X connect 24 0 23 0;
#X connect 24 1 27 0;
#X connect 24 1 51 0;
#X connect 25 0 10 0;
#X connect 25 1 10 1;
#X connect 27 0 25 0;
#X connect 28 0 25 0;
#X connect 29 0 38 0;
#X connect 30 0 29 1;
#X connect 31 0 33 0;
#X connect 31 1 32 0;
#X connect 32 0 29 0;
#X connect 33 0 29 0;
#X connect 34 0 37 1;
#X connect 35 0 31 0;
#X connect 35 0 30 0;
#X connect 36 0 34 0;
#X connect 37 0 43 0;
#X connect 37 0 54 0;
#X connect 38 0 37 0;
#X connect 38 1 42 0;
#X connect 38 1 53 0;
#X connect 39 0 10 0;
#X connect 39 1 10 1;
#X connect 42 0 39 0;
#X connect 43 0 39 0;
#X connect 44 0 45 0;
#X connect 45 0 9 0;
#X connect 45 1 24 0;
#X connect 45 2 38 0;
#X connect 45 3 46 0;
#X connect 46 0 12 0;
#X connect 46 0 49 0;
#X connect 46 1 27 0;
#X connect 46 1 51 0;
#X connect 46 2 42 0;
#X connect 46 2 53 0;
#X connect 49 0 14 0;
#X connect 49 0 26 0;
#X connect 49 0 41 0;
#X connect 49 0 55 0;
#X connect 50 0 14 0;
#X connect 50 0 26 0;
#X connect 50 0 41 0;
#X connect 50 0 55 0;
#X connect 51 0 26 0;
#X connect 51 0 14 0;
#X connect 51 0 41 0;
#X connect 51 0 55 0;
#X connect 52 0 26 0;
#X connect 52 0 14 0;
#X connect 52 0 41 0;
#X connect 52 0 55 0;
#X connect 53 0 41 0;
#X connect 53 0 14 0;
#X connect 53 0 26 0;
#X connect 53 0 55 0;
#X connect 54 0 41 0;
#X connect 54 0 14 0;
#X connect 54 0 26 0;
#X connect 54 0 55 0;
#X restore -124 227 pd LEDTriggers;
#N canvas 823 288 450 300 StrainScale 0;
#X obj 90 47 inlet;
#X obj 90 241 outlet;
#X obj 90 136 * 2;
#X text 90 261 a general scaler for easy changing centrally;
#X obj 82 166 / 127;
#X obj 94 204 - 0.1;
#X connect 0 0 2 0;
#X connect 2 0 4 0;
#X connect 4 0 5 0;
#X connect 5 0 1 0;
#X restore 744 130 pd StrainScale;
#N canvas 823 288 450 300 StrainScale 0;
#X obj 90 47 inlet;
#X obj 90 241 outlet;
#X obj 90 136 * 2;
#X text 90 261 a general scaler for easy changing centrally;
#X obj 82 166 / 127;
#X obj 94 204 - 0.1;
#X connect 0 0 2 0;
#X connect 2 0 4 0;
#X connect 4 0 5 0;
#X connect 5 0 1 0;
#X restore 844 128 pd StrainScale;
#N canvas 823 288 450 300 StrainScale 0;
#X obj 90 47 inlet;
#X obj 90 241 outlet;
#X obj 90 136 * 2;
#X text 90 261 a general scaler for easy changing centrally;
#X obj 82 166 / 127;
#X obj 94 204 - 0.1;
#X connect 0 0 2 0;
#X connect 2 0 4 0;
#X connect 4 0 5 0;
#X connect 5 0 1 0;
#X restore 942 130 pd StrainScale;
#X obj 244 361 cnv 15 180 25 empty empty Camera-Strain_H 4 12 1 16
-257985 -66577 0;
#X obj 242 297 cnv 15 180 25 empty empty Camera-Strain_V 4 12 1 16
-257985 -66577 0;
#N canvas 821 293 450 300 StrainScale 0;
#X obj 90 47 inlet;
#X obj 90 241 outlet;
#X obj 90 136 * 2;
#X text 90 261 a general scaler for easy changing centrally;
#X obj 82 166 / 127;
#X obj 94 204 - 0.1;
#X connect 0 0 2 0;
#X connect 2 0 4 0;
#X connect 4 0 5 0;
#X connect 5 0 1 0;
#X restore 734 73 pd StrainScale;
#N canvas 823 288 450 300 StrainScale 0;
#X obj 90 47 inlet;
#X obj 90 241 outlet;
#X obj 90 136 * 2;
#X text 90 261 a general scaler for easy changing centrally;
#X obj 82 166 / 127;
#X obj 94 204 - 0.1;
#X connect 0 0 2 0;
#X connect 2 0 4 0;
#X connect 4 0 5 0;
#X connect 5 0 1 0;
#X restore 834 71 pd StrainScale;
#N canvas 821 293 450 300 StrainScale 0;
#X obj 90 47 inlet;
#X obj 90 241 outlet;
#X text 90 261 a general scaler for easy changing centrally;
#X obj 82 166 / 127;
#X obj 94 204 - 0.5;
#X connect 0 0 3 0;
#X connect 3 0 4 0;
#X connect 4 0 1 0;
#X restore 932 73 pd StrainScale;
#X obj 243 229 cnv 15 180 25 empty empty Camera-Size 4 12 1 16 -257985
-66577 0;
#X obj 699 23 * 8;
#X obj 757 25 * 8;
#X obj 811 21 * 8;
#X text 646 149 comment;
#X obj 638 25 * 8;
#X obj 638 46 s size1;
#X obj 699 46 s size2;
#X obj 755 47 s size3;
#X obj 810 46 s size4;
#N canvas 821 293 450 300 StrainScale 0;
#X obj 90 47 inlet;
#X obj 90 241 outlet;
#X text 90 261 a general scaler for easy changing centrally;
#X obj 82 166 / 127;
#X obj 94 204 - 0.5;
#X connect 0 0 3 0;
#X connect 3 0 4 0;
#X connect 4 0 1 0;
#X restore 638 77 pd StrainScale;
#X obj 638 100 s strainV1;
#X obj 733 96 s strainV2;
#X obj 833 93 s strainV3;
#X obj 932 95 s strainV4;
#N canvas 823 288 450 300 StrainScale 0;
#X obj 90 47 inlet;
#X obj 90 241 outlet;
#X obj 90 136 * 2;
#X text 90 261 a general scaler for easy changing centrally;
#X obj 82 166 / 127;
#X obj 94 204 - 0.1;
#X connect 0 0 2 0;
#X connect 2 0 4 0;
#X connect 4 0 5 0;
#X connect 5 0 1 0;
#X restore 637 129 pd StrainScale;
#X obj 635 150 s strain1;
#X obj 744 153 s strain2;
#X obj 845 153 s strain3;
#X obj 941 152 s strain4;
#X obj 246 630 IRScale;
#X obj 246 655 s camalpha1;
#X obj 323 654 s camalpha2;
#X obj 402 655 s camalpha3;
#X obj 483 655 s camalpha4;
#X msg 1083 318 send /arduino A1V\$1;
#X obj 1083 295 IRScale;
#X obj 1087 640 s osc4;
#X obj 1091 417 MotorScale;
#X obj 1094 459 MotorScale;
#X msg 1091 437 send /arduino M1D0S\$1;
#X msg 1093 478 send /arduino M1D1S\$1;
#X msg 1090 592 send /arduino S1P\$1;
#X obj 1090 569 ServoScale;
#X connect 1 0 52 0;
#X connect 1 0 97 0;
#X connect 2 0 53 0;
#X connect 2 0 98 0;
#X connect 3 0 76 0;
#X connect 3 0 99 0;
#X connect 4 0 106 0;
#X connect 4 0 54 0;
#X connect 5 0 55 0;
#X connect 5 0 108 0;
#X connect 6 0 69 0;
#X connect 6 0 110 0;
#X connect 7 0 167 0;
#X connect 7 0 70 0;
#X connect 8 0 154 0;
#X connect 9 0 117 0;
#X connect 10 0 116 0;
#X connect 11 0 115 0;
#X connect 13 0 118 0;
#X connect 13 0 163 0;
#X connect 14 0 149 0;
#X connect 15 0 126 0;
#X connect 16 0 127 0;
#X connect 17 0 128 0;
#X connect 18 0 80 0;
#X connect 18 0 94 0;
#X connect 19 0 81 0;
#X connect 19 0 95 0;
#X connect 20 0 82 0;
#X connect 20 0 96 0;
#X connect 21 0 119 0;
#X connect 21 0 162 0;
#X connect 22 0 144 0;
#X connect 23 0 131 0;
#X connect 24 0 132 0;
#X connect 25 0 133 0;
#X connect 26 0 125 1;
#X connect 27 0 125 3;
#X connect 28 0 125 5;
#X connect 30 0 139 0;
#X connect 31 0 135 0;
#X connect 32 0 136 0;
#X connect 33 0 137 0;
#X connect 35 0 125 0;
#X connect 36 0 125 2;
#X connect 37 0 125 4;
#X connect 39 0 92 0;
#X connect 40 0 90 0;
#X connect 41 0 93 0;
#X connect 42 0 160 0;
#X connect 47 0 123 1;
#X connect 48 0 123 0;
#X connect 52 0 77 0;
#X connect 53 0 78 0;
#X connect 54 0 62 0;
#X connect 55 0 64 0;
#X connect 56 0 73 0;
#X connect 57 0 73 0;
#X connect 62 0 63 0;
#X connect 63 0 111 0;
#X connect 63 1 111 1;
#X connect 64 0 63 0;
#X connect 65 0 63 0;
#X connect 66 0 63 0;
#X connect 67 0 63 0;
#X connect 68 0 63 0;
#X connect 69 0 65 0;
#X connect 70 0 66 0;
#X connect 71 0 67 0;
#X connect 72 0 68 0;
#X connect 76 0 79 0;
#X connect 77 0 63 0;
#X connect 78 0 63 0;
#X connect 79 0 63 0;
#X connect 80 0 83 0;
#X connect 81 0 84 0;
#X connect 82 0 85 0;
#X connect 83 0 63 0;
#X connect 84 0 63 0;
#X connect 85 0 63 0;
#X connect 89 0 74 0;
#X connect 90 0 89 0;
#X connect 91 0 75 0;
#X connect 92 0 57 0;
#X connect 93 0 91 0;
#X connect 94 0 100 0;
#X connect 95 0 102 0;
#X connect 96 0 104 0;
#X connect 97 0 101 0;
#X connect 98 0 103 0;
#X connect 99 0 105 0;
#X connect 100 0 73 0;
#X connect 101 0 73 0;
#X connect 102 0 74 0;
#X connect 103 0 74 0;
#X connect 104 0 75 0;
#X connect 105 0 75 0;
#X connect 106 0 56 0;
#X connect 107 0 74 0;
#X connect 108 0 107 0;
#X connect 109 0 75 0;
#X connect 110 0 109 0;
#X connect 112 0 111 2;
#X connect 113 0 112 0;
#X connect 115 0 158 0;
#X connect 116 0 157 0;
#X connect 117 0 156 0;
#X connect 118 0 121 0;
#X connect 119 0 120 0;
#X connect 120 0 63 0;
#X connect 121 0 63 0;
#X connect 126 0 151 0;
#X connect 127 0 152 0;
#X connect 128 0 153 0;
#X connect 131 0 146 0;
#X connect 132 0 147 0;
#X connect 133 0 148 0;
#X connect 135 0 141 0;
#X connect 136 0 142 0;
#X connect 137 0 143 0;
#X connect 139 0 140 0;
#X connect 144 0 145 0;
#X connect 149 0 150 0;
#X connect 154 0 155 0;
#X connect 159 0 161 0;
#X connect 160 0 159 0;
#X connect 162 0 164 0;
#X connect 163 0 165 0;
#X connect 164 0 161 0;
#X connect 165 0 161 0;
#X connect 166 0 161 0;
#X connect 167 0 166 0;
#X coords 0 -1 1 1 600 600 1 10 10;
