#N canvas 163 155 471 622 10;
#X obj 32 19 ctlin;
#X obj 63 565 send;
#X obj 116 193 select 7;
#X floatatom 206 303 5 0 0 0 - - -;
#X obj 161 218 moses 16;
#X obj 206 242 moses 24;
#X text 153 302 faders->;
#X obj 251 263 moses 49;
#X obj 296 286 moses 66;
#X obj 341 311 moses 66;
#X floatatom 251 408 5 0 0 0 - - -;
#X obj 386 332 moses 82;
#X text 285 407 <- knobs;
#X msg 116 249 0;
#X obj 206 273 - 15;
#X obj 42 509 i;
#X msg 94 500 symbol fader\$1;
#X obj 67 426 t b f;
#X obj 251 430 t b f;
#X msg 278 465 symbol knob\$1;
#X obj 251 305 - 23;
#X obj 386 353 - 40;
#X obj 30 148 t b f;
#X obj 116 168 i;
#X obj 73 112 spigot;
#X obj 125 112 spigot;
#X msg 106 77 1;
#X msg 158 82 0;
#X obj 89 48 select 1;
#X connect 0 0 24 0;
#X connect 0 1 25 0;
#X connect 0 2 28 0;
#X connect 2 0 13 0;
#X connect 2 1 4 0;
#X connect 3 0 17 0;
#X connect 4 1 5 0;
#X connect 5 0 14 0;
#X connect 5 1 7 0;
#X connect 7 0 20 0;
#X connect 7 1 8 0;
#X connect 8 1 9 0;
#X connect 9 1 11 0;
#X connect 10 0 18 0;
#X connect 11 0 21 0;
#X connect 13 0 3 0;
#X connect 14 0 3 0;
#X connect 15 0 1 0;
#X connect 16 0 1 1;
#X connect 17 0 15 0;
#X connect 17 1 16 0;
#X connect 18 0 15 0;
#X connect 18 1 19 0;
#X connect 19 0 1 1;
#X connect 20 0 10 0;
#X connect 21 0 10 0;
#X connect 22 0 23 0;
#X connect 22 1 15 1;
#X connect 23 0 2 0;
#X connect 24 0 22 0;
#X connect 25 0 23 1;
#X connect 26 0 24 1;
#X connect 26 0 25 1;
#X connect 27 0 24 1;
#X connect 27 0 25 1;
#X connect 28 0 26 0;
#X connect 28 1 27 0;
