#N canvas 590 368 774 522 10;
#X obj 117 56 ctlin;
#X floatatom 121 133 5 0 0 0 - - -;
#X floatatom 165 134 5 0 0 0 - - -;
#X floatatom 207 135 5 0 0 0 - - -;
#X obj 118 272 send;
#X obj 158 184 select 7;
#X obj 80 176 i;
#X obj 41 129 t b f;
#X floatatom 248 350 5 0 0 0 - - -;
#X obj 203 209 moses 16;
#X obj 248 233 moses 24;
#X text 188 352 faders->;
#X obj 293 274 moses 49;
#X obj 338 307 moses 66;
#X connect 0 0 1 0;
#X connect 0 1 2 0;
#X connect 0 1 7 0;
#X connect 0 2 3 0;
#X connect 5 1 9 0;
#X connect 6 0 5 0;
#X connect 7 0 6 0;
#X connect 7 1 6 1;
#X connect 9 1 10 0;
#X connect 10 0 8 0;
#X connect 10 1 12 0;
#X connect 12 0 8 0;
