#N canvas 122 188 1015 712 10;
#X obj 326 59 EAGraphic;
#X obj 46 533 udpsend;
#X obj 46 568 tgl 15 0 empty empty empty 17 7 0 10 -262144 -1 -1 0
1;
#X msg 85 480 disconnect;
#X obj 326 476 packOSC;
#X msg 76 457 connect 192.168.1.4 9000;
#X msg 64 433 connect 192.168.0.112 9000;
#X msg 46 406 connect 192.168.0.103 9000;
#X connect 0 0 4 0;
#X connect 1 0 2 0;
#X connect 3 0 1 0;
#X connect 4 0 1 0;
#X connect 5 0 1 0;
#X connect 6 0 1 0;
#X connect 7 0 1 0;
