#N canvas 168 24 1226 867 10;
#X declare -lib mrpeach;
#X obj 582 115 loadbang;
#X msg 405 682 \$1 0;
#X obj 405 709 unpack;
#X obj 499 754 outlet;
#X obj 498 380 cnv 15 100 80 empty empty storage 20 12 1 10 -261682
-66577 0;
#X floatatom 535 401 5 0 127 0 - - -;
#X obj 508 402 bng 15 250 50 0 empty empty empty 17 7 0 10 -4034 -1
-1;
#X obj 576 403 bng 15 250 50 0 empty empty empty 17 7 0 10 -258113
-1 -1;
#N canvas 1006 381 538 443 storagesystem 0;
#X obj 106 58 i 0;
#X obj 118 205 +;
#X obj 106 84 t b f;
#X obj 75 134 - 1;
#X obj 270 53 i 0;
#X obj 421 227 +;
#X obj 270 79 t b f;
#X obj 269 154 - 1;
#X obj 269 181 t f f;
#X obj 121 14 inlet;
#X obj 81 14 inlet;
#X obj 39 14 inlet;
#X obj 64 387 outlet;
#X obj 64 362 pack;
#X obj 64 332 i;
#X obj 75 165 t f f;
#X obj 64 277 t b f;
#X obj 42 109 uzi 16;
#X obj 133 134 * 16;
#X obj 236 112 uzi 16;
#X obj 436 185 * 16;
#X obj 269 228 tabread \$0-graphicmemory;
#X obj 12 242 tabread \$0-graphicmemory;
#X obj 269 275 tabwrite \$0-graphicmemory;
#X connect 0 0 2 0;
#X connect 1 0 22 0;
#X connect 2 0 17 0;
#X connect 2 1 18 0;
#X connect 3 0 15 0;
#X connect 4 0 6 0;
#X connect 5 0 23 1;
#X connect 6 0 19 0;
#X connect 6 1 20 0;
#X connect 7 0 8 0;
#X connect 8 0 21 0;
#X connect 8 1 5 0;
#X connect 9 0 0 1;
#X connect 9 0 4 1;
#X connect 10 0 4 0;
#X connect 11 0 0 0;
#X connect 13 0 12 0;
#X connect 14 0 13 0;
#X connect 15 0 1 0;
#X connect 15 1 14 1;
#X connect 16 0 14 0;
#X connect 16 1 13 1;
#X connect 17 2 3 0;
#X connect 18 0 1 1;
#X connect 19 2 7 0;
#X connect 20 0 5 1;
#X connect 21 0 23 0;
#X connect 22 0 16 0;
#X restore 712 198 pd storagesystem;
#X obj 892 475 cnv 15 100 250 empty empty camera_settings 20 12 1 10
-233017 -66577 0;
#X obj 922 500 vsl 10 200 -100 100 0 0 empty empty empty 0 -9 0 10
-262144 -1 -1 0 1;
#X msg 992 582 0;
#X obj 910 500 vsl 10 200 -100 100 0 0 empty empty empty 0 -9 0 10
-262144 -1 -1 0 1;
#X obj 897 500 vsl 10 200 -100 100 0 0 empty empty empty 0 -9 0 10
-262144 -1 -1 0 1;
#X obj 576 437 bng 15 250 50 0 empty empty empty 0 -6 0 8 -261234 -1
-1;
#X obj 835 97 savepanel;
#X obj 508 437 bng 15 250 50 0 empty empty empty 0 -6 0 8 -204786 -1
-1;
#X obj 840 165 openpanel;
#X obj 923 707 bng 15 250 50 0 empty empty empty 0 -6 0 8 -262144 -1
-1;
#X text 523 436 < file >;
#X text 927 706 A utomatic;
#X obj -292 65 cnv 15 300 250 empty empty virtual_camera 20 0 1 10
-4032 -66577 0;
#X obj -278 80 grid position 150 0 4 150 0 4 1 1 1 10 10 -476 69;
#X floatatom -278 237 5 0 3000 0 - - -;
#X floatatom -136 233 5 -100 3000 0 - - -;
#X floatatom 808 569 5 0 3000 0 - - -;
#X floatatom 843 570 5 -100 3000 0 - - -;
#X text 898 543 s s s;
#X text 898 573 t a u;
#X text 899 560 a h h;
#X msg 383 581 \$1 2;
#X msg 425 585 \$1 3;
#X obj 219 87 t b f;
#X obj 176 121 i;
#X obj 225 140 pack;
#X msg 296 629 \$1 4;
#X msg 336 630 \$1 5;
#X msg 715 521 \$1 6;
#X msg 468 525 \$1 7;
#X msg 164 605 \$1 8;
#X msg 208 606 \$1 9;
#X obj 555 386 bng 10 250 50 0 empty empty + 2 4 1 12 -262144 -1 -1
;
#X obj 581 386 bng 10 250 50 0 empty empty - 3 4 1 12 -262144 -1 -1
;
#X obj 615 411 i;
#X obj 644 411 i;
#X obj 644 435 - 1;
#X obj 615 435 + 1;
#X floatatom 213 213 5 0 0 0 - - -;
#X floatatom 175 213 5 0 0 0 - - -;
#X msg 225 166 values \$1 \$2;
#X text 499 464 scale;
#X obj 710 219 route 0 1 2 3 4 5 6 7 8 9 10 11;
#X msg 491 560 \$1 10;
#X msg 533 560 \$1 11;
#X text -74 221 alpha;
#X obj 266 740 tabwrite \$0-graphicmemory;
#X msg -227 639 /3d/camera/x \$1;
#X msg -96 637 /3d/camera/y \$1;
#X text 47 33 controlpanel for one raspberry pi;
#X text 47 49 to control the 3D engine;
#X obj 551 48 table \$0-graphicmemory 2048;
#X obj 275 380 cnv 15 200 120 empty empty 3d_object 20 0 1 10 -261682
-66577 0;
#X obj 319 388 grid position 100 -20 20 100 -20 20 1 1 1 10 10 473
32;
#X msg 601 670 /3d/object/y \$1;
#X msg 604 696 /3d/object/z \$1;
#X floatatom 734 673 5 -100 3000 0 - - -;
#X floatatom 497 485 5 -100 3000 0 - 3DScale -;
#X floatatom 318 490 5 -100 3000 0 - - -;
#X floatatom 411 491 5 -100 3000 0 - - -;
#X obj 582 308 vradio 15 1 0 4 empty empty empty 0 -8 0 10 -262144
-1 -1 2;
#X floatatom 616 488 5 0 0 0 - - -;
#X obj 434 445 expr 20 -$f1;
#X obj 920 320 t b f;
#X obj 926 373 pack;
#X msg 926 399 values \$1 \$2;
#X obj 914 350 f;
#X obj 967 339 expr 20 - $f1;
#X obj 355 327 knob 32 32 0 360 0 0 empty beat empty 0 -8 0 8 -262144
-1 -1 0 1;
#X obj 276 326 knob 32 32 0 360 0 0 empty schwell empty 0 -8 0 8 -262144
-1 -1 0 1;
#X obj 316 308 knob 32 32 0 160 0 0 empty hisiren empty 0 -8 0 8 -262144
-1 -1 0 1;
#X obj 22 240 r siren;
#X floatatom 86 358 5 0 0 0 - - -;
#X obj 22 313 * 10;
#X obj 52 334 + 10;
#X obj 139 296 + 10;
#X obj 771 41 import mrpeach;
#X obj -128 206 expr 4 - $f1;
#X obj 258 118 expr 4 - $f1;
#X obj 460 84 inlet;
#X obj 925 123 f \$0;
#X msg 924 87 bang;
#X obj 914 159 pack f s;
#X obj 842 131 t b s;
#X obj 986 124 f \$0;
#X obj 975 160 pack f s;
#X obj 844 189 t b s;
#X msg 909 210 \; \$1-graphicmemory write \$2;
#X msg 910 268 \; \$1-graphicmemory read \$2;
#X obj 696 90 inlet;
#X msg 294 522 /3d posX \$1;
#X msg 378 522 /3d posY \$1;
#X msg 503 523 /3d scale \$1;
#X msg 593 529 /3d scene \$1;
#X msg 603 625 /3d/object/x \$1;
#X msg 41 513 send /3d rotationZ \$1;
#X msg -9 455 send /3d rotationY \$1;
#X msg 109 389 send /3d rotationX \$1;
#X msg 582 141 2;
#X obj 416 308 nbx 3 14 0 100 0 0 empty empty empty 0 -8 0 10 -261234
-1 -1 0 256;
#X obj 456 308 nbx 3 14 0 100 0 0 empty empty empty 0 -8 0 10 -204786
-1 -1 0 256;
#X obj 496 308 nbx 3 14 0 100 0 0 empty empty empty 0 -8 0 10 -203904
-1 -1 0 256;
#X obj 536 308 nbx 3 14 0 100 0 0 empty empty empty 0 -8 0 10 -228856
-1 -1 0 256;
#X obj 661 347 / 100;
#X obj 699 347 / 100;
#X obj 737 347 / 100;
#X obj 775 347 / 100;
#X msg 697 425 /3d backgroundRed \$1;
#X msg 723 454 /3d backgroundGreen \$1;
#X msg 739 480 /3d backgroundBlue \$1;
#X msg 760 503 /3d backgroundAlpha \$1;
#X connect 0 0 107 0;
#X connect 1 0 2 0;
#X connect 2 0 55 0;
#X connect 2 1 55 1;
#X connect 5 0 8 2;
#X connect 5 0 43 1;
#X connect 5 0 44 1;
#X connect 6 0 8 0;
#X connect 7 0 8 1;
#X connect 8 0 51 0;
#X connect 11 0 10 0;
#X connect 14 0 15 0;
#X connect 15 0 92 0;
#X connect 16 0 17 0;
#X connect 17 0 95 0;
#X connect 18 0 11 0;
#X connect 22 0 23 0;
#X connect 22 1 86 0;
#X connect 23 0 56 0;
#X connect 23 0 30 0;
#X connect 24 0 57 0;
#X connect 24 0 31 0;
#X connect 25 0 103 0;
#X connect 25 0 52 0;
#X connect 26 0 63 0;
#X connect 26 0 53 0;
#X connect 30 0 2 0;
#X connect 31 0 2 0;
#X connect 32 0 33 0;
#X connect 32 1 47 0;
#X connect 32 1 87 0;
#X connect 33 0 34 0;
#X connect 33 0 48 0;
#X connect 34 0 49 0;
#X connect 35 0 2 0;
#X connect 36 0 2 0;
#X connect 37 0 2 0;
#X connect 38 0 2 0;
#X connect 39 0 2 0;
#X connect 40 0 2 0;
#X connect 41 0 43 0;
#X connect 42 0 44 0;
#X connect 43 0 46 0;
#X connect 44 0 45 0;
#X connect 45 0 5 0;
#X connect 46 0 5 0;
#X connect 49 0 22 0;
#X connect 51 4 75 1;
#X connect 51 5 72 0;
#X connect 51 6 69 0;
#X connect 51 8 12 0;
#X connect 51 9 10 0;
#X connect 52 0 2 0;
#X connect 53 0 2 0;
#X connect 62 0 67 0;
#X connect 62 1 68 0;
#X connect 63 0 3 0;
#X connect 64 0 3 0;
#X connect 65 0 64 0;
#X connect 66 0 101 0;
#X connect 66 0 38 0;
#X connect 67 0 35 0;
#X connect 67 0 99 0;
#X connect 68 0 36 0;
#X connect 68 0 100 0;
#X connect 69 0 102 0;
#X connect 69 0 37 0;
#X connect 72 0 75 0;
#X connect 72 1 76 0;
#X connect 72 1 73 1;
#X connect 73 0 74 0;
#X connect 74 0 62 0;
#X connect 75 0 73 0;
#X connect 77 0 104 0;
#X connect 78 0 106 0;
#X connect 79 0 84 0;
#X connect 80 0 82 0;
#X connect 82 0 83 0;
#X connect 83 0 81 0;
#X connect 83 0 105 0;
#X connect 84 0 82 1;
#X connect 84 0 83 1;
#X connect 86 0 24 0;
#X connect 87 0 34 1;
#X connect 88 0 69 0;
#X connect 89 0 91 0;
#X connect 90 0 89 0;
#X connect 91 0 96 0;
#X connect 92 0 89 0;
#X connect 92 1 91 1;
#X connect 93 0 94 0;
#X connect 94 0 97 0;
#X connect 95 0 93 0;
#X connect 95 1 94 1;
#X connect 98 0 6 0;
#X connect 99 0 3 0;
#X connect 100 0 3 0;
#X connect 101 0 3 0;
#X connect 102 0 3 0;
#X connect 103 0 3 0;
#X connect 104 0 3 0;
#X connect 105 0 3 0;
#X connect 106 0 3 0;
#X connect 107 0 69 0;
#X connect 108 0 112 0;
#X connect 109 0 113 0;
#X connect 110 0 114 0;
#X connect 111 0 115 0;
#X connect 112 0 116 0;
#X connect 113 0 117 0;
#X connect 114 0 118 0;
#X connect 115 0 119 0;
#X connect 116 0 3 0;
#X connect 117 0 3 0;
#X connect 118 0 3 0;
#X connect 119 0 3 0;
#X coords 0 -1 1 1 350 210 2 260 300;
