#N canvas 159 22 1087 809 10;
#X obj 602 6 loadbang;
#X msg 265 611 \$1 0;
#X obj 265 638 unpack;
#X obj 611 777 outlet;
#X obj 598 104 cnv 15 100 80 empty empty storage 20 12 1 10 -261682
-66577 0;
#X floatatom 635 125 5 0 127 0 - - -;
#X obj 608 126 bng 15 250 50 0 empty empty empty 17 7 0 10 -4034 -1
-1;
#X obj 676 127 bng 15 250 50 0 empty empty empty 17 7 0 10 -258113
-1 -1;
#N canvas 1006 381 538 443 storagesystem 0;
#X obj 106 58 i 0;
#X obj 118 205 +;
#X obj 106 84 t b f;
#X obj 75 134 - 1;
#X obj 270 53 i 0;
#X obj 421 227 +;
#X obj 270 79 t b f;
#X obj 269 154 - 1;
#X obj 269 181 t f f;
#X obj 121 14 inlet;
#X obj 81 14 inlet;
#X obj 39 14 inlet;
#X obj 64 387 outlet;
#X obj 64 362 pack;
#X obj 64 332 i;
#X obj 75 165 t f f;
#X obj 64 277 t b f;
#X obj 42 109 uzi 16;
#X obj 133 134 * 16;
#X obj 236 112 uzi 16;
#X obj 436 185 * 16;
#X obj 269 228 tabread \$0-graphicmemory;
#X obj 12 242 tabread \$0-graphicmemory;
#X obj 269 275 tabwrite \$0-graphicmemory;
#X connect 0 0 2 0;
#X connect 1 0 22 0;
#X connect 2 0 17 0;
#X connect 2 1 18 0;
#X connect 3 0 15 0;
#X connect 4 0 6 0;
#X connect 5 0 23 1;
#X connect 6 0 19 0;
#X connect 6 1 20 0;
#X connect 7 0 8 0;
#X connect 8 0 21 0;
#X connect 8 1 5 0;
#X connect 9 0 0 1;
#X connect 9 0 4 1;
#X connect 10 0 4 0;
#X connect 11 0 0 0;
#X connect 13 0 12 0;
#X connect 14 0 13 0;
#X connect 15 0 1 0;
#X connect 15 1 14 1;
#X connect 16 0 14 0;
#X connect 16 1 13 1;
#X connect 17 2 3 0;
#X connect 18 0 1 1;
#X connect 19 2 7 0;
#X connect 20 0 5 1;
#X connect 21 0 23 0;
#X connect 22 0 16 0;
#X restore 712 198 pd storagesystem;
#X obj 588 224 cnv 15 100 250 empty empty camera_settings 20 12 1 10
-233017 -66577 0;
#X obj 618 249 vsl 10 200 -100 100 0 0 empty empty empty 0 -9 0 10
-262144 -1 -1 0 1;
#X msg 715 356 0;
#X obj 606 249 vsl 10 200 -100 100 0 0 empty empty empty 0 -9 0 10
-262144 -1 -1 0 1;
#X obj 593 249 vsl 10 200 -100 100 0 0 empty empty empty 0 -9 0 10
-262144 -1 -1 0 1;
#X msg 66 697 /camera/shutter \$1;
#X msg 142 658 /camera/effect \$1;
#X msg 176 559 /camera/sharpness \$1;
#X msg 27 578 /camera/saturation \$1;
#X obj 676 161 bng 15 250 50 0 empty empty empty 0 -6 0 8 -261234 -1
-1;
#X obj 909 187 savepanel;
#X obj 608 161 bng 15 250 50 0 empty empty empty 0 -6 0 8 -204786 -1
-1;
#X obj 909 245 openpanel;
#X obj 619 456 bng 15 250 50 0 empty empty empty 0 -6 0 8 -262144 -1
-1;
#X text 623 160 < file >;
#X text 623 455 A utomatic;
#X obj 275 111 cnv 15 300 250 empty empty virtual_camera 20 0 1 10
-4032 -66577 0;
#X obj 289 126 grid position 200 0 1990 200 0 1990 1 1 1 10 10 299
141;
#X floatatom 289 329 5 0 3000 0 - - -;
#X floatatom 482 329 5 -100 3000 0 - - -;
#X obj 490 302 expr 1930 - $f1;
#X floatatom 485 442 5 0 3000 0 - - -;
#X floatatom 520 443 5 -100 3000 0 - - -;
#X obj 977 349 vsl 10 128 0 255 0 0 empty empty empty 0 -9 0 10 -262144
-1 -1 0 1;
#X msg 732 452 send /camera/alpha \$1;
#X obj 732 403 int;
#X obj 66 674 int;
#X obj 164 534 int;
#X obj 27 546 int;
#X text 594 292 s s s;
#X text 594 322 t a u;
#X text 595 309 a h h;
#X obj 1000 347 tgl 15 0 empty empty empty 17 7 0 10 -262144 -1 -1
0 1;
#X obj 1000 370 tgl 15 0 empty empty empty 17 7 0 10 -262144 -1 -1
0 1;
#X text 1003 347 horz flip;
#X text 1002 369 vert flip;
#X obj 1000 419 tgl 15 0 empty empty empty 17 7 0 10 -262144 -1 -1
0 1;
#X text 1002 419 fullscreen;
#X obj 714 476 int;
#X msg 714 500 send /camera/fullscreen \$1;
#X obj 748 530 int;
#X msg 749 555 send /camera/hflip \$1;
#X obj 755 578 int;
#X msg 756 603 send /camera/vflip \$1;
#X obj 914 506 vsl 10 128 0 1 0 0 empty empty empty 0 -9 0 10 -262144
-1 -1 0 1;
#X obj 930 506 vsl 10 128 0 1 0 0 empty empty empty 0 -9 0 10 -262144
-1 -1 0 1;
#X obj 947 506 vsl 10 128 0.05 1 0 0 empty empty empty 0 -9 0 10 -262144
-1 -1 0 1;
#X obj 965 506 vsl 10 128 0.05 1 0 0 empty empty empty 0 -9 0 10 -262144
-1 -1 0 1;
#X msg 729 655 /camera/zoomX \$1;
#X msg 739 678 /camera/zoomY \$1;
#X msg 757 704 /camera/zoomW \$1;
#X msg 772 726 /camera/zoomH \$1;
#X floatatom 901 646 5 0 0 0 - - -;
#X floatatom 943 647 5 0 0 0 - - -;
#X floatatom 985 649 5 0 0 0 - - -;
#X floatatom 1027 650 5 0 0 0 - - -;
#X obj 598 200 tgl 15 0 empty empty empty 17 7 0 10 -262144 -1 -1 0
1;
#X text 616 199 start;
#X obj 772 362 int;
#X msg 772 384 send /camera/switch \$1;
#X msg 766 427 \$1 1;
#X msg 389 585 \$1 2;
#X msg 425 585 \$1 3;
#X obj 768 244 t b f;
#X obj 725 278 i;
#X obj 774 297 pack;
#X msg 365 638 \$1 4;
#X msg 403 638 \$1 5;
#X msg 435 638 \$1 6;
#X msg 116 606 \$1 7;
#X msg 164 605 \$1 8;
#X msg 208 606 \$1 9;
#X obj 655 110 bng 10 250 50 0 empty empty + 2 4 1 12 -262144 -1 -1
;
#X obj 681 110 bng 10 250 50 0 empty empty - 3 4 1 12 -262144 -1 -1
;
#X obj 714 131 i;
#X obj 743 131 i;
#X obj 743 155 - 1;
#X obj 714 155 + 1;
#X floatatom 899 316 5 0 0 0 - - -;
#X floatatom 861 316 5 0 0 0 - - -;
#X msg 774 323 values \$1 \$2;
#X obj 806 275 expr 1930 - $f1;
#X text 507 411 scale;
#X obj 710 219 route 0 1 2 3 4 5 6 7 8 9 10 11;
#X msg 491 560 \$1 10;
#X msg 533 560 \$1 11;
#X text 493 267 alpha;
#X obj 265 670 tabwrite \$0-graphicmemory;
#X msg 909 210 \; \$0-graphicmemory write \$1;
#X msg 910 268 \; \$0-graphicmemory read \$1;
#X msg 285 585 /3d/camera/x \$1;
#X msg 478 642 /3d/camera/y \$1;
#X text 47 33 controlpanel for one raspberry pi;
#X text 47 49 to control the 3D engine;
#X obj 87 410 table \$0-graphicmemory 2048;
#X obj 275 380 cnv 15 200 120 empty empty 3d_object 20 0 1 10 -261682
-66577 0;
#X obj 317 389 grid position 100 0 1990 100 0 1990 1 1 1 10 10 353
420;
#X msg 555 620 /3d/object/x \$1;
#X msg 554 665 /3d/object/y \$1;
#X msg 557 691 /3d/object/z \$1;
#X floatatom 556 443 5 -100 3000 0 - - -;
#X floatatom 547 411 5 -100 3000 0 - - -;
#X connect 1 0 2 0;
#X connect 2 0 96 0;
#X connect 2 1 96 1;
#X connect 5 0 8 2;
#X connect 5 0 83 1;
#X connect 5 0 84 1;
#X connect 6 0 8 0;
#X connect 7 0 8 1;
#X connect 8 0 92 0;
#X connect 10 0 35 0;
#X connect 11 0 10 0;
#X connect 12 0 36 0;
#X connect 13 0 37 0;
#X connect 14 0 3 0;
#X connect 15 0 3 0;
#X connect 16 0 3 0;
#X connect 17 0 3 0;
#X connect 18 0 19 0;
#X connect 19 0 97 0;
#X connect 20 0 21 0;
#X connect 21 0 98 0;
#X connect 22 0 11 0;
#X connect 26 0 27 0;
#X connect 26 1 29 0;
#X connect 27 0 99 0;
#X connect 27 0 70 0;
#X connect 28 0 100 0;
#X connect 28 0 71 0;
#X connect 29 0 28 0;
#X connect 30 0 106 0;
#X connect 30 0 93 0;
#X connect 31 0 107 0;
#X connect 31 0 94 0;
#X connect 32 0 34 0;
#X connect 33 0 3 0;
#X connect 34 0 33 0;
#X connect 34 0 69 0;
#X connect 35 0 14 0;
#X connect 35 0 80 0;
#X connect 36 0 16 0;
#X connect 36 0 79 0;
#X connect 37 0 17 0;
#X connect 37 0 78 0;
#X connect 41 0 49 0;
#X connect 42 0 51 0;
#X connect 45 0 47 0;
#X connect 47 0 48 0;
#X connect 47 0 77 0;
#X connect 48 0 3 0;
#X connect 49 0 50 0;
#X connect 49 0 75 0;
#X connect 50 0 3 0;
#X connect 51 0 52 0;
#X connect 51 0 76 0;
#X connect 52 0 3 0;
#X connect 53 0 61 0;
#X connect 54 0 62 0;
#X connect 55 0 63 0;
#X connect 56 0 64 0;
#X connect 57 0 3 0;
#X connect 58 0 3 0;
#X connect 59 0 3 0;
#X connect 60 0 3 0;
#X connect 61 0 57 0;
#X connect 62 0 58 0;
#X connect 63 0 59 0;
#X connect 64 0 60 0;
#X connect 65 0 67 0;
#X connect 67 0 68 0;
#X connect 68 0 3 0;
#X connect 69 0 2 0;
#X connect 70 0 2 0;
#X connect 71 0 2 0;
#X connect 72 0 73 0;
#X connect 72 1 87 0;
#X connect 72 1 90 0;
#X connect 73 0 74 0;
#X connect 73 0 88 0;
#X connect 74 0 89 0;
#X connect 75 0 2 0;
#X connect 76 0 2 0;
#X connect 77 0 2 0;
#X connect 78 0 2 0;
#X connect 79 0 2 0;
#X connect 80 0 2 0;
#X connect 81 0 83 0;
#X connect 82 0 84 0;
#X connect 83 0 86 0;
#X connect 84 0 85 0;
#X connect 85 0 5 0;
#X connect 86 0 5 0;
#X connect 89 0 26 0;
#X connect 90 0 74 1;
#X connect 92 1 32 0;
#X connect 92 2 73 1;
#X connect 92 3 72 0;
#X connect 92 4 41 0;
#X connect 92 5 42 0;
#X connect 92 6 45 0;
#X connect 92 7 13 0;
#X connect 92 8 12 0;
#X connect 92 9 10 0;
#X connect 92 10 30 0;
#X connect 92 11 31 0;
#X connect 93 0 2 0;
#X connect 94 0 2 0;
#X connect 99 0 3 0;
#X connect 100 0 3 0;
#X connect 106 0 3 0;
#X connect 107 0 3 0;
#X connect 108 0 3 0;
#X connect 109 0 108 0;
#X connect 110 0 109 0;
#X connect 110 0 31 0;
#X connect 110 0 30 0;
#X coords 0 -1 1 1 450 410 2 260 100;
