#N canvas 826 23 847 669 10;
#X declare -lib mrpeach;
#X declare -lib mrpeach;
#X declare -lib mrpeach;
#X declare -lib mrpeach;
#X declare -lib mrpeach;
#X obj 115 174 udpsend;
#X obj 115 209 tgl 15 0 empty empty empty 17 7 0 10 -262144 -1 -1 1
1;
#X msg 35 152 disconnect;
#X obj 115 148 packOSC;
#X obj 347 162 import mrpeach;
#X obj 527 198 udpsend;
#X obj 527 216 tgl 15 0 empty empty empty 17 7 0 10 -262144 -1 -1 1
1;
#X msg 455 167 disconnect;
#X obj 527 148 packOSC;
#X obj 125 518 udpsend;
#X obj 125 536 tgl 15 0 empty empty empty 17 7 0 10 -262144 -1 -1 1
1;
#X msg 39 498 disconnect;
#X obj 125 483 packOSC;
#X msg 256 210 1;
#X msg 225 210 0;
#X msg 287 210 2;
#X obj 741 -18 vsl 15 240 0 8 0 0 3DScale empty empty 0 -9 0 10 -262144
-1 -1 0 1;
#X msg 563 174 connect 192.168.0.112 9000;
#X msg 189 488 connect 192.168.0.113 9000;
#X obj 784 -60 bng 15 250 50 0 loadGraphicScene empty empty 17 7 0
10 -4034 -1 -1;
#X obj 13 -62 EAGraphic;
#X obj 741 236 r nanoFader5;
#X obj 741 255 * 8;
#X msg 318 210 3;
#X obj 369 -62 EAGraphic;
#X obj 10 273 EAGraphic;
#X msg 171 152 connect 192.168.0.111 9000;
#X obj 484 518 udpsend;
#X obj 484 536 tgl 15 0 empty empty empty 17 7 0 10 -262144 -1 -1 1
1;
#X msg 398 498 disconnect;
#X obj 484 483 packOSC;
#X obj 369 273 EAGraphic;
#X obj 607 256 r loadGraphicScene;
#X obj 248 256 r loadGraphicScene;
#X obj 251 -79 r loadGraphicScene;
#X obj 607 -79 r loadGraphicScene;
#X obj 225 227 s setGraphicScene;
#X obj 10 256 r setGraphicScene;
#X obj 369 256 r setGraphicScene;
#X obj 369 -79 r setGraphicScene;
#X obj 13 -79 r setGraphicScene;
#X msg 548 488 connect 192.168.0.114 9000;
#X connect 0 0 1 0;
#X connect 2 0 0 0;
#X connect 3 0 0 0;
#X connect 5 0 6 0;
#X connect 7 0 5 0;
#X connect 8 0 5 0;
#X connect 9 0 10 0;
#X connect 11 0 9 0;
#X connect 12 0 9 0;
#X connect 13 0 36 0;
#X connect 14 0 36 0;
#X connect 15 0 36 0;
#X connect 17 0 5 0;
#X connect 18 0 9 0;
#X connect 20 0 3 0;
#X connect 21 0 22 0;
#X connect 22 0 16 0;
#X connect 23 0 36 0;
#X connect 24 0 8 0;
#X connect 25 0 12 0;
#X connect 26 0 0 0;
#X connect 27 0 28 0;
#X connect 29 0 27 0;
#X connect 30 0 27 0;
#X connect 31 0 30 0;
#X connect 32 0 31 1;
#X connect 33 0 25 1;
#X connect 34 0 20 1;
#X connect 35 0 24 1;
#X connect 37 0 25 0;
#X connect 38 0 31 0;
#X connect 39 0 24 0;
#X connect 40 0 20 0;
#X connect 41 0 27 0;
