#N canvas 42 183 1239 752 10;
#X declare -lib mrpeach;
#X obj -317 612 import mrpeach;
#X obj -314 676 udpsend;
#X obj -314 698 tgl 15 0 empty empty empty 17 7 0 10 -4034 -1 -1 0
1;
#X msg -266 659 disconnect;
#X obj 341 2 EAVideoPlay;
#N canvas 346 84 564 578 geruempel 0;
#X obj 61 427 packOSC;
#X msg 22 251 send /fader \$1;
#X obj 22 87 vsl 15 128 0 10 0 0 empty empty empty 0 -9 0 10 -262144
-1 -1 0 1;
#X obj 234 83 vsl 15 128 0 10 0 0 empty empty empty 0 -9 0 10 -262144
-1 -1 0 1;
#X msg 238 258 send /control \$1;
#X obj 47 39 knob 32 32 0 360 0 0 empty empty empty 0 -8 0 8 -262144
-1 -1 0 1;
#X obj 186 140 knob 32 32 0 360 0 0 empty empty empty 0 -8 0 8 -262144
-1 -1 0 1;
#X msg 47 133 send /rotationZ \$1;
#X msg 82 190 send /rotationX \$1;
#X msg 95 348 send /control/p1 \$1;
#X floatatom 96 311 5 0 0 0 - - -;
#X obj 306 -7 vsl 15 128 0 180 0 0 empty empty empty 0 -9 0 10 -262144
-1 -1 0 1;
#X obj 486 -13 vsl 15 128 0 255 0 0 empty empty empty 0 -9 0 10 -262144
-1 -1 0 1;
#X obj 488 125 int;
#X obj 519 125 int;
#X obj 518 -15 vsl 15 128 0 255 0 0 empty empty empty 0 -9 0 10 -262144
-1 -1 0 1;
#X obj 350 -17 vsl 15 128 0 127 0 0 empty empty empty 0 -9 0 10 -262144
-1 -1 0 1;
#X obj 347 136 int;
#X obj 384 -2 vsl 15 128 0 127 0 0 empty empty empty 0 -9 0 10 -262144
-1 -1 0 1;
#X obj 383 136 int;
#X obj 307 157 int;
#X obj 484 184 vsl 15 128 0 255 0 0 empty empty empty 0 -9 0 10 -262144
-1 -1 0 1;
#X obj 484 335 int;
#X obj 513 179 vsl 15 128 0 255 0 0 empty empty empty 0 -9 0 10 -262144
-1 -1 0 1;
#X obj 514 329 int;
#X msg 303 196 send /arduino S1P\$1;
#X msg 302 235 send /arduino A2V\$1;
#X msg 299 257 send /arduino A1V\$1;
#X msg 300 280 send /arduino M1D0S\$1;
#X msg 313 299 send /arduino M1D1S\$1;
#X msg 298 320 send /arduino M2D0S\$1;
#X msg 323 341 send /arduino M2D1S\$1;
#X msg 300 366 send /arduinoP1;
#X msg 413 390 send /arduinoP0;
#X obj 126 251 r packosc;
#X obj 109 44 knob 32 32 0 360 0 0 empty empty empty 0 -8 0 8 -262144
-1 -1 0 1;
#X msg 51 154 send /rotationY \$1;
#X obj 82 469 s osc1;
#X obj 144 483 s osc2;
#X obj 169 447 s osc3;
#X connect 1 0 0 0;
#X connect 2 0 1 0;
#X connect 3 0 4 0;
#X connect 4 0 0 0;
#X connect 5 0 7 0;
#X connect 6 0 8 0;
#X connect 7 0 0 0;
#X connect 8 0 0 0;
#X connect 9 0 0 0;
#X connect 10 0 9 0;
#X connect 11 0 20 0;
#X connect 12 0 13 0;
#X connect 13 0 28 0;
#X connect 14 0 30 0;
#X connect 15 0 14 0;
#X connect 16 0 17 0;
#X connect 17 0 27 0;
#X connect 18 0 19 0;
#X connect 19 0 26 0;
#X connect 20 0 25 0;
#X connect 21 0 22 0;
#X connect 22 0 29 0;
#X connect 23 0 24 0;
#X connect 24 0 31 0;
#X connect 25 0 0 0;
#X connect 26 0 0 0;
#X connect 27 0 0 0;
#X connect 28 0 0 0;
#X connect 29 0 0 0;
#X connect 30 0 0 0;
#X connect 31 0 0 0;
#X connect 32 0 0 0;
#X connect 33 0 0 0;
#X connect 34 0 0 0;
#X connect 35 0 36 0;
#X connect 36 0 0 0;
#X connect 36 0 37 0;
#X connect 36 0 38 0;
#X connect 36 0 39 0;
#X restore -215 612 pd geruempel;
#X obj -314 632 r osc1;
#X obj -314 652 packOSC;
#X obj 408 223 s osc1;
#X obj 344 204 s osc1;
#X obj 341 447 s osc2;
#X obj 338 689 s osc3;
#X obj 410 458 s osc2;
#X obj 416 690 s osc3;
#X obj -114 680 udpsend;
#X obj -114 702 tgl 15 0 empty empty empty 17 7 0 10 -4034 -1 -1 0
1;
#X msg -63 660 disconnect;
#X obj -114 656 packOSC;
#X obj 92 683 udpsend;
#X obj 88 703 tgl 15 0 empty empty empty 17 7 0 10 -4034 -1 -1 1 1
;
#X msg 146 661 disconnect;
#X obj 92 659 packOSC;
#X obj -114 636 r osc2;
#X obj 92 639 r osc3;
#X obj -1 611 cnv 15 240 20 empty empty empty 20 12 0 14 -204786 -66577
0;
#X text 1 611 blink LED:;
#X text 134 611 LED On:;
#X text 179 609 q w e;
#X obj 447 -2 r camalpha1;
#X obj 451 458 r camalpha3;
#X obj 449 226 r camalpha2;
#X text 66 611 1 2 3;
#X text 360 568 comment;
#X obj 521 -3 r none1;
#X obj 521 225 r none2;
#X obj 523 456 r none3;
#X obj 573 -3 r neg1;
#X obj 570 226 r neg2;
#X obj 569 458 r neg3;
#X obj 613 -5 r strain1;
#X obj 610 225 r strain2;
#X obj 609 457 r strain3;
#X obj 676 -7 r strainV1;
#X obj 668 456 r strainV3;
#X obj 240 54 tgl 40 0 empty empty FX__none/neg 17 7 0 10 -4032 -1
-1 0 1;
#N canvas 664 181 450 412 switchFX 0;
#X obj -1697 -501 bng 15 250 50 0 empty empty empty 17 7 0 10 -262144
-1 -1;
#X obj -1696 -475 s none1;
#X obj -1690 -380 bng 15 250 50 0 empty empty empty 17 7 0 10 -262144
-1 -1;
#X obj -1692 -331 s neg1;
#X obj -1693 -312 s neg2;
#X obj -1690 -289 s neg3;
#X obj -1696 -454 s none2;
#X obj -1696 -433 s none3;
#X obj -1758 -463 r strainV2;
#X obj -1697 -547 select 0 1;
#X obj -1726 -591 inlet;
#X connect 0 0 1 0;
#X connect 0 0 6 0;
#X connect 0 0 7 0;
#X connect 2 0 3 0;
#X connect 2 0 4 0;
#X connect 2 0 5 0;
#X connect 9 0 0 0;
#X connect 9 1 2 0;
#X connect 10 0 9 0;
#X restore 239 98 pd switchFX;
#X obj 239 125 tgl 40 0 empty empty Full-Screen 17 7 0 10 -260097 -1
-1 0 1;
#X obj 238 169 s fullscreen;
#X obj 767 63 r fullscreen;
#X text 770 15 comment;
#N canvas 43 264 625 384 position 0;
#X obj 98 -41 inlet;
#X obj 21 261 s posV1;
#X obj 137 255 s posV2;
#X obj 270 270 s posV3;
#X obj 71 263 s posH1;
#X obj 190 255 s posH2;
#X obj 322 272 s posH3;
#X obj 89 63 random 300;
#X obj 17 84 - 100;
#X obj 17 62 random 700;
#X obj 89 85 - 100;
#X obj 247 64 random 300;
#X obj 175 85 - 100;
#X obj 175 63 random 700;
#X obj 247 86 - 100;
#X obj 414 65 random 300;
#X obj 342 86 - 100;
#X obj 342 64 random 700;
#X obj 414 87 - 100;
#X connect 0 0 7 0;
#X connect 0 0 9 0;
#X connect 0 0 13 0;
#X connect 0 0 11 0;
#X connect 0 0 17 0;
#X connect 0 0 15 0;
#X connect 7 0 10 0;
#X connect 8 0 1 0;
#X connect 9 0 8 0;
#X connect 10 0 4 0;
#X connect 11 0 14 0;
#X connect 12 0 2 0;
#X connect 13 0 12 0;
#X connect 14 0 5 0;
#X connect 15 0 18 0;
#X connect 16 0 3 0;
#X connect 17 0 16 0;
#X connect 18 0 6 0;
#X restore 241 239 pd position;
#X obj 770 13 r posV1;
#X obj 771 31 r posH1;
#X obj 771 185 r posV1;
#X obj 769 204 r posH1;
#X obj 775 414 r posV1;
#X obj 773 437 r posH1;
#X obj 241 192 bng 40 250 50 0 empty empty Position 17 7 0 10 -257985
-1 -1;
#X obj -369 -3 EAFostexMixTabPanel;
#X obj 743 -6 r size1;
#X obj 740 224 r size2;
#X obj 736 457 r size3;
#X obj 668 226 r strainV2;
#X obj 450 244 EACamera;
#X msg -89 699 connect 192.168.0.109 9000;
#X msg -293 698 connect 192.168.0.108 9000;
#X obj 286 -1 bng 15 250 50 0 empty empty empty 17 7 0 10 -262144 -1
-1;
#X msg 339 2 0;
#X msg 341 20 1;
#X obj 288 21 bng 15 250 50 0 empty empty empty 17 7 0 10 -262144 -1
-1;
#X text 244 -1 video1;
#X text 243 18 video2;
#X obj 341 245 EAVideoPlay;
#X obj 338 487 EAVideoPlay;
#X msg 109 701 connect 192.168.0.112 9000;
#X obj 446 17 EACamera;
#X obj 453 477 EACamera;
#X connect 1 0 2 0;
#X connect 3 0 1 0;
#X connect 4 0 9 0;
#X connect 6 0 7 0;
#X connect 7 0 1 0;
#X connect 14 0 15 0;
#X connect 16 0 14 0;
#X connect 17 0 14 0;
#X connect 18 0 19 0;
#X connect 20 0 18 0;
#X connect 21 0 18 0;
#X connect 22 0 17 0;
#X connect 23 0 21 0;
#X connect 28 0 75 0;
#X connect 29 0 76 0;
#X connect 30 0 63 0;
#X connect 33 0 75 1;
#X connect 34 0 63 1;
#X connect 35 0 76 1;
#X connect 36 0 75 2;
#X connect 37 0 63 2;
#X connect 38 0 76 2;
#X connect 39 0 75 3;
#X connect 40 0 63 3;
#X connect 41 0 76 3;
#X connect 42 0 75 4;
#X connect 43 0 76 4;
#X connect 44 0 45 0;
#X connect 46 0 47 0;
#X connect 48 0 63 8;
#X connect 48 0 75 8;
#X connect 48 0 76 8;
#X connect 51 0 75 5;
#X connect 52 0 75 6;
#X connect 53 0 63 5;
#X connect 54 0 63 6;
#X connect 55 0 76 5;
#X connect 56 0 76 6;
#X connect 57 0 50 0;
#X connect 59 0 75 7;
#X connect 60 0 63 7;
#X connect 61 0 76 7;
#X connect 62 0 63 4;
#X connect 63 0 12 0;
#X connect 64 0 14 0;
#X connect 65 0 1 0;
#X connect 66 0 67 0;
#X connect 67 0 4 0;
#X connect 67 0 72 0;
#X connect 67 0 73 0;
#X connect 68 0 4 0;
#X connect 68 0 72 0;
#X connect 68 0 73 0;
#X connect 69 0 68 0;
#X connect 72 0 10 0;
#X connect 73 0 11 0;
#X connect 74 0 18 0;
#X connect 75 0 8 0;
#X connect 76 0 13 0;
