#N canvas 1 101 1585 690 10;
#X declare -lib mrpeach;
#X obj -317 612 import mrpeach;
#X obj 350 570 udpsend;
#X obj 350 592 tgl 15 0 empty empty empty 17 7 0 10 -4034 -1 -1 0 1
;
#X msg 398 553 disconnect;
#N canvas 343 97 564 578 geruempel 0;
#X obj 61 427 packOSC;
#X msg 22 251 send /fader \$1;
#X obj 22 87 vsl 15 128 0 10 0 0 empty empty empty 0 -9 0 10 -262144
-1 -1 0 1;
#X obj 234 83 vsl 15 128 0 10 0 0 empty empty empty 0 -9 0 10 -262144
-1 -1 0 1;
#X msg 238 258 send /control \$1;
#X obj 47 39 knob 32 32 0 360 0 0 empty empty empty 0 -8 0 8 -262144
-1 -1 0 1;
#X obj 186 140 knob 32 32 0 360 0 0 empty empty empty 0 -8 0 8 -262144
-1 -1 0 1;
#X msg 47 133 send /rotationZ \$1;
#X msg 82 190 send /rotationX \$1;
#X msg 95 348 send /control/p1 \$1;
#X floatatom 96 311 5 0 0 0 - - -;
#X obj 306 -7 vsl 15 128 0 180 0 0 empty empty empty 0 -9 0 10 -262144
-1 -1 0 1;
#X obj 486 -13 vsl 15 128 0 255 0 0 empty empty empty 0 -9 0 10 -262144
-1 -1 0 1;
#X obj 488 125 int;
#X obj 519 125 int;
#X obj 518 -15 vsl 15 128 0 255 0 0 empty empty empty 0 -9 0 10 -262144
-1 -1 0 1;
#X obj 350 -17 vsl 15 128 0 127 0 0 empty empty empty 0 -9 0 10 -262144
-1 -1 0 1;
#X obj 347 136 int;
#X obj 384 -2 vsl 15 128 0 127 0 0 empty empty empty 0 -9 0 10 -262144
-1 -1 0 1;
#X obj 383 136 int;
#X obj 307 157 int;
#X obj 484 184 vsl 15 128 0 255 0 0 empty empty empty 0 -9 0 10 -262144
-1 -1 0 1;
#X obj 484 335 int;
#X obj 513 179 vsl 15 128 0 255 0 0 empty empty empty 0 -9 0 10 -262144
-1 -1 0 1;
#X obj 514 329 int;
#X msg 303 196 send /arduino S1P\$1;
#X msg 302 235 send /arduino A2V\$1;
#X msg 299 257 send /arduino A1V\$1;
#X msg 300 280 send /arduino M1D0S\$1;
#X msg 313 299 send /arduino M1D1S\$1;
#X msg 298 320 send /arduino M2D0S\$1;
#X msg 323 341 send /arduino M2D1S\$1;
#X msg 300 366 send /arduinoP1;
#X msg 413 390 send /arduinoP0;
#X obj 126 251 r packosc;
#X obj 109 44 knob 32 32 0 360 0 0 empty empty empty 0 -8 0 8 -262144
-1 -1 0 1;
#X msg 51 154 send /rotationY \$1;
#X obj 82 469 s osc1;
#X obj 144 483 s osc2;
#X obj 169 447 s osc3;
#X connect 1 0 0 0;
#X connect 2 0 1 0;
#X connect 3 0 4 0;
#X connect 4 0 0 0;
#X connect 5 0 7 0;
#X connect 6 0 8 0;
#X connect 7 0 0 0;
#X connect 8 0 0 0;
#X connect 9 0 0 0;
#X connect 10 0 9 0;
#X connect 11 0 20 0;
#X connect 12 0 13 0;
#X connect 13 0 28 0;
#X connect 14 0 30 0;
#X connect 15 0 14 0;
#X connect 16 0 17 0;
#X connect 17 0 27 0;
#X connect 18 0 19 0;
#X connect 19 0 26 0;
#X connect 20 0 25 0;
#X connect 21 0 22 0;
#X connect 22 0 29 0;
#X connect 23 0 24 0;
#X connect 24 0 31 0;
#X connect 25 0 0 0;
#X connect 26 0 0 0;
#X connect 27 0 0 0;
#X connect 28 0 0 0;
#X connect 29 0 0 0;
#X connect 30 0 0 0;
#X connect 31 0 0 0;
#X connect 32 0 0 0;
#X connect 33 0 0 0;
#X connect 34 0 0 0;
#X connect 35 0 36 0;
#X connect 36 0 0 0;
#X connect 36 0 37 0;
#X connect 36 0 38 0;
#X connect 36 0 39 0;
#X restore -215 612 pd geruempel;
#X obj 350 526 r osc1;
#X obj 350 546 packOSC;
#X obj 400 218 s osc1;
#X obj 347 218 s osc1;
#X obj 342 488 s osc2;
#X obj 780 225 s osc3;
#X obj 395 490 s osc2;
#X obj 844 218 s osc3;
#X obj 550 574 udpsend;
#X obj 550 596 tgl 15 0 empty empty empty 17 7 0 10 -4034 -1 -1 0 1
;
#X msg 602 554 disconnect;
#X obj 550 550 packOSC;
#X obj 756 577 udpsend;
#X obj 752 597 tgl 15 0 empty empty empty 17 7 0 10 -4034 -1 -1 0 1
;
#X msg 810 555 disconnect;
#X obj 756 553 packOSC;
#X obj 550 530 r osc2;
#X obj 756 533 r osc3;
#X obj -39 610 cnv 15 240 20 empty empty empty 20 12 0 14 -204786 -66577
0;
#X text -37 610 blink LED:;
#X text 96 610 LED On:;
#X text 141 608 q w e;
#X obj 449 11 r camalpha1;
#X obj 892 12 r camalpha3;
#X obj 452 268 r camalpha2;
#X text 28 610 1 2 3;
#X text 802 104 comment;
#X obj 521 11 r none1;
#X obj 522 266 r none2;
#X obj 964 10 r none3;
#X obj 573 11 r neg1;
#X obj 571 267 r neg2;
#X obj 1010 12 r neg3;
#X obj 613 9 r strain1;
#X obj 611 266 r strain2;
#X obj 1050 11 r strain3;
#X obj 605 -12 r strainV1;
#X obj 1042 -9 r strainV3;
#N canvas 214 204 571 498 switchFX 0;
#X obj -1681 -447 bng 15 250 50 0 empty empty empty 17 7 0 10 -262144
-1 -1;
#X obj -1680 -421 s none1;
#X obj -1631 -447 bng 15 250 50 0 empty empty empty 17 7 0 10 -262144
-1 -1;
#X obj -1627 -421 s neg1;
#X obj -1628 -402 s neg2;
#X obj -1625 -379 s neg3;
#X obj -1680 -400 s none2;
#X obj -1680 -379 s none3;
#X obj -1726 -591 inlet;
#X obj -1567 -447 bng 15 250 50 0 empty empty empty 17 7 0 10 -262144
-1 -1;
#X obj -1568 -423 s sola1;
#X obj -1565 -399 s sola2;
#X obj -1563 -376 s sola3;
#X obj -1695 -566 bng 15 250 50 0 empty empty empty 17 7 0 10 -262144
-1 -1;
#X floatatom -1556 -525 0 0 0 0 - - -;
#X obj -1556 -550 + 1;
#X obj -1613 -549 float;
#X msg -1484 -576 0;
#X obj -1525 -578 bng 15 250 50 0 empty empty empty 17 7 0 10 -262144
-1 -1;
#X obj -1672 -498 route 0 1 2 3;
#X obj -1528 -489 delay;
#X obj -1679 -351 s none4;
#X obj -1624 -351 s neg4;
#X obj -1561 -349 s sola4;
#X connect 0 0 1 0;
#X connect 0 0 6 0;
#X connect 0 0 7 0;
#X connect 0 0 21 0;
#X connect 2 0 3 0;
#X connect 2 0 4 0;
#X connect 2 0 5 0;
#X connect 2 0 22 0;
#X connect 8 0 13 0;
#X connect 9 0 10 0;
#X connect 9 0 11 0;
#X connect 9 0 12 0;
#X connect 9 0 23 0;
#X connect 13 0 16 0;
#X connect 14 0 19 0;
#X connect 15 0 14 0;
#X connect 15 0 16 1;
#X connect 16 0 15 0;
#X connect 17 0 16 1;
#X connect 18 0 17 0;
#X connect 19 1 0 0;
#X connect 19 2 2 0;
#X connect 19 3 9 0;
#X connect 19 3 20 0;
#X connect 20 0 18 0;
#X restore 238 247 pd switchFX;
#X obj 238 274 tgl 40 0 empty empty Full-Screen 17 7 0 10 -260097 -1
-1 1 1;
#X obj 237 318 s fullscreen;
#X obj 775 -8 r fullscreen;
#N canvas 40 277 787 453 position 0;
#X obj 98 -41 inlet;
#X obj 22 141 s posV1;
#X obj 172 139 s posV2;
#X obj 345 134 s posV3;
#X obj 72 143 s posH1;
#X obj 225 139 s posH2;
#X obj 397 136 s posH3;
#X obj 89 63 random 300;
#X obj 17 84 - 100;
#X obj 17 62 random 700;
#X obj 89 85 - 100;
#X obj 247 64 random 300;
#X obj 175 85 - 100;
#X obj 175 63 random 700;
#X obj 247 86 - 100;
#X obj 414 65 random 300;
#X obj 342 86 - 100;
#X obj 342 64 random 700;
#X obj 414 87 - 100;
#X obj 575 70 random 300;
#X obj 503 91 - 100;
#X obj 503 69 random 700;
#X obj 575 92 - 100;
#X obj 497 143 s posV4;
#X obj 549 145 s posH4;
#X connect 0 0 7 0;
#X connect 0 0 9 0;
#X connect 0 0 13 0;
#X connect 0 0 11 0;
#X connect 0 0 17 0;
#X connect 0 0 15 0;
#X connect 7 0 10 0;
#X connect 8 0 1 0;
#X connect 9 0 8 0;
#X connect 10 0 4 0;
#X connect 11 0 14 0;
#X connect 12 0 2 0;
#X connect 13 0 12 0;
#X connect 14 0 5 0;
#X connect 15 0 18 0;
#X connect 16 0 3 0;
#X connect 17 0 16 0;
#X connect 18 0 6 0;
#X connect 19 0 22 0;
#X connect 20 0 23 0;
#X connect 21 0 20 0;
#X connect 22 0 24 0;
#X restore 240 388 pd position;
#X obj 675 10 r posV1;
#X obj 674 -10 r posH1;
#X obj 670 246 r posV1;
#X obj 673 266 r posH1;
#X obj 1113 11 r posV1;
#X obj 1113 -11 r posH1;
#X obj 240 341 bng 40 250 50 0 empty empty Position 17 7 0 10 -257985
-1 -1;
#X obj -369 -3 EAFostexMixTabPanel;
#X obj 724 11 r size1;
#X obj 723 265 r size2;
#X obj 1165 8 r size3;
#X obj 600 245 r strainV2;
#X obj 289 -14 bng 15 250 50 0 empty empty empty 17 7 0 10 -262144
-1 -1;
#X msg 316 -10 0;
#X msg 315 15 1;
#X obj 286 16 bng 15 250 50 0 empty empty empty 17 7 0 10 -262144 -1
-1;
#X text 244 -1 video1;
#X text 243 18 video2;
#X msg 371 592 connect 192.168.0.111 9000;
#X msg 575 593 connect 192.168.0.112 9000;
#X msg 773 595 connect 192.168.0.113 9000;
#X obj 446 31 EACamera;
#X obj 237 139 select 121 120 99;
#X obj 236 117 key;
#X text 243 171 X for Full-Screen;
#X text 243 158 Y for FX;
#X text 243 185 C for Position;
#X obj 288 92 bng 30 250 50 0 empty empty empty 17 7 0 10 -258113 -1
-1;
#X obj 447 287 EACamera;
#X obj 894 31 EACamera;
#X obj 722 -8 r sola1;
#X obj 719 244 r sola2;
#X obj 1164 -11 r sola3;
#X obj 237 201 bng 40 250 50 0 empty empty FX 17 7 0 10 -4032 -1 -1
;
#X text 801 346 comment;
#X obj 894 292 EACamera;
#X obj 1115 255 r posV1;
#X obj 1117 273 r posH1;
#X obj 964 271 r none4;
#X obj 1010 273 r neg4;
#X obj 1051 254 r strain4;
#X obj 892 273 r camalpha4;
#X obj 842 480 s osc4;
#X obj 795 481 s osc4;
#X text 849 43 comment;
#X obj 955 575 udpsend;
#X obj 951 595 tgl 15 0 empty empty empty 17 7 0 10 -4034 -1 -1 0 1
;
#X msg 1009 553 disconnect;
#X obj 955 551 packOSC;
#X msg 972 593 connect 192.168.0.114 9000;
#X obj 955 531 r osc4;
#X obj 1163 252 r sola4;
#X obj 1164 272 r size4;
#X obj 1048 274 r strainV4;
#X obj 285 38 bng 15 250 50 0 empty empty empty 17 7 0 10 -262144 -1
-1;
#X obj 282 68 bng 15 250 50 0 empty empty empty 17 7 0 10 -262144 -1
-1;
#X text 240 51 video3;
#X text 239 70 video4;
#X msg 311 42 2;
#X msg 311 67 3;
#X obj 342 276 EAVideoPlay;
#X obj 344 11 EAVideoPlay;
#X obj 783 16 EAVideoPlay;
#X obj 781 275 EAVideoPlay;
#X text -35 633 blink IR: 7 8 9 0 IR on: u i o p;
#X connect 1 0 2 0;
#X connect 3 0 1 0;
#X connect 5 0 6 0;
#X connect 6 0 1 0;
#X connect 13 0 14 0;
#X connect 15 0 13 0;
#X connect 16 0 13 0;
#X connect 17 0 18 0;
#X connect 19 0 17 0;
#X connect 20 0 17 0;
#X connect 21 0 16 0;
#X connect 22 0 20 0;
#X connect 27 0 69 0;
#X connect 28 0 77 0;
#X connect 29 0 76 0;
#X connect 32 0 69 1;
#X connect 33 0 76 1;
#X connect 34 0 77 1;
#X connect 35 0 69 2;
#X connect 36 0 76 2;
#X connect 37 0 77 2;
#X connect 38 0 69 3;
#X connect 39 0 76 3;
#X connect 40 0 77 3;
#X connect 41 0 69 4;
#X connect 42 0 77 4;
#X connect 44 0 45 0;
#X connect 46 0 69 8;
#X connect 46 0 76 8;
#X connect 46 0 77 8;
#X connect 46 0 83 8;
#X connect 48 0 69 5;
#X connect 49 0 69 6;
#X connect 50 0 76 5;
#X connect 51 0 76 6;
#X connect 52 0 77 5;
#X connect 53 0 77 6;
#X connect 54 0 47 0;
#X connect 56 0 69 7;
#X connect 57 0 76 7;
#X connect 58 0 77 7;
#X connect 59 0 76 4;
#X connect 60 0 61 0;
#X connect 61 0 108 0;
#X connect 61 0 109 0;
#X connect 61 0 110 0;
#X connect 61 0 111 0;
#X connect 62 0 108 0;
#X connect 62 0 109 0;
#X connect 62 0 110 0;
#X connect 62 0 111 0;
#X connect 63 0 62 0;
#X connect 66 0 1 0;
#X connect 67 0 13 0;
#X connect 68 0 17 0;
#X connect 69 0 7 0;
#X connect 70 0 81 0;
#X connect 70 1 44 0;
#X connect 70 2 54 0;
#X connect 71 0 70 0;
#X connect 75 0 108 1;
#X connect 75 0 109 1;
#X connect 75 0 110 1;
#X connect 75 0 111 1;
#X connect 76 0 11 0;
#X connect 77 0 12 0;
#X connect 78 0 69 9;
#X connect 79 0 76 9;
#X connect 80 0 77 9;
#X connect 81 0 43 0;
#X connect 83 0 90 0;
#X connect 84 0 83 5;
#X connect 85 0 83 6;
#X connect 86 0 83 1;
#X connect 87 0 83 2;
#X connect 88 0 83 3;
#X connect 89 0 83 0;
#X connect 93 0 94 0;
#X connect 95 0 93 0;
#X connect 96 0 93 0;
#X connect 97 0 93 0;
#X connect 98 0 96 0;
#X connect 99 0 83 9;
#X connect 100 0 83 7;
#X connect 101 0 83 4;
#X connect 102 0 106 0;
#X connect 103 0 107 0;
#X connect 106 0 108 0;
#X connect 106 0 109 0;
#X connect 106 0 110 0;
#X connect 106 0 111 0;
#X connect 107 0 108 0;
#X connect 107 0 109 0;
#X connect 107 0 110 0;
#X connect 107 0 111 0;
#X connect 108 0 9 0;
#X connect 109 0 8 0;
#X connect 110 0 10 0;
#X connect 111 0 91 0;
