#N canvas 92 78 1125 721 10;
#X declare -lib mrpeach;
#X obj -317 612 import mrpeach;
#X obj -314 676 udpsend;
#X obj -314 698 tgl 15 0 empty empty empty 17 7 0 10 -4034 -1 -1 1
1;
#X msg -266 659 disconnect;
#X obj -344 8 EAFostexMixTabPanel;
#X obj 269 10 EAVideoPlay;
#N canvas 346 84 564 578 geruempel 0;
#X obj 61 427 packOSC;
#X msg 22 251 send /fader \$1;
#X obj 22 87 vsl 15 128 0 10 0 0 empty empty empty 0 -9 0 10 -262144
-1 -1 0 1;
#X obj 234 83 vsl 15 128 0 10 0 0 empty empty empty 0 -9 0 10 -262144
-1 -1 0 1;
#X msg 238 258 send /control \$1;
#X obj 47 39 knob 32 32 0 360 0 0 empty empty empty 0 -8 0 8 -262144
-1 -1 0 1;
#X obj 186 140 knob 32 32 0 360 0 0 empty empty empty 0 -8 0 8 -262144
-1 -1 0 1;
#X msg 47 133 send /rotationZ \$1;
#X msg 82 190 send /rotationX \$1;
#X msg 95 348 send /control/p1 \$1;
#X floatatom 96 311 5 0 0 0 - - -;
#X obj 306 -7 vsl 15 128 0 180 0 0 empty empty empty 0 -9 0 10 -262144
-1 -1 0 1;
#X obj 486 -13 vsl 15 128 0 255 0 0 empty empty empty 0 -9 0 10 -262144
-1 -1 0 1;
#X obj 488 125 int;
#X obj 519 125 int;
#X obj 518 -15 vsl 15 128 0 255 0 0 empty empty empty 0 -9 0 10 -262144
-1 -1 0 1;
#X obj 350 -17 vsl 15 128 0 127 0 0 empty empty empty 0 -9 0 10 -262144
-1 -1 0 1;
#X obj 347 136 int;
#X obj 384 -2 vsl 15 128 0 127 0 0 empty empty empty 0 -9 0 10 -262144
-1 -1 0 1;
#X obj 383 136 int;
#X obj 307 157 int;
#X obj 484 184 vsl 15 128 0 255 0 0 empty empty empty 0 -9 0 10 -262144
-1 -1 0 1;
#X obj 484 335 int;
#X obj 513 179 vsl 15 128 0 255 0 0 empty empty empty 0 -9 0 10 -262144
-1 -1 0 1;
#X obj 514 329 int;
#X msg 303 196 send /arduino S1P\$1;
#X msg 302 235 send /arduino A2V\$1;
#X msg 299 257 send /arduino A1V\$1;
#X msg 300 280 send /arduino M1D0S\$1;
#X msg 313 299 send /arduino M1D1S\$1;
#X msg 298 320 send /arduino M2D0S\$1;
#X msg 323 341 send /arduino M2D1S\$1;
#X msg 300 366 send /arduinoP1;
#X msg 413 390 send /arduinoP0;
#X obj 126 251 r packosc;
#X obj 109 44 knob 32 32 0 360 0 0 empty empty empty 0 -8 0 8 -262144
-1 -1 0 1;
#X msg 51 154 send /rotationY \$1;
#X obj 82 469 s osc1;
#X obj 144 483 s osc2;
#X obj 169 447 s osc3;
#X connect 1 0 0 0;
#X connect 2 0 1 0;
#X connect 3 0 4 0;
#X connect 4 0 0 0;
#X connect 5 0 7 0;
#X connect 6 0 8 0;
#X connect 7 0 0 0;
#X connect 8 0 0 0;
#X connect 9 0 0 0;
#X connect 10 0 9 0;
#X connect 11 0 20 0;
#X connect 12 0 13 0;
#X connect 13 0 28 0;
#X connect 14 0 30 0;
#X connect 15 0 14 0;
#X connect 16 0 17 0;
#X connect 17 0 27 0;
#X connect 18 0 19 0;
#X connect 19 0 26 0;
#X connect 20 0 25 0;
#X connect 21 0 22 0;
#X connect 22 0 29 0;
#X connect 23 0 24 0;
#X connect 24 0 31 0;
#X connect 25 0 0 0;
#X connect 26 0 0 0;
#X connect 27 0 0 0;
#X connect 28 0 0 0;
#X connect 29 0 0 0;
#X connect 30 0 0 0;
#X connect 31 0 0 0;
#X connect 32 0 0 0;
#X connect 33 0 0 0;
#X connect 34 0 0 0;
#X connect 35 0 36 0;
#X connect 36 0 0 0;
#X connect 36 0 37 0;
#X connect 36 0 38 0;
#X connect 36 0 39 0;
#X restore -215 612 pd geruempel;
#X obj 272 251 EAVideoPlay;
#X obj 275 493 EAVideoPlay;
#X obj -314 632 r osc1;
#X obj -314 652 packOSC;
#X obj 455 232 s osc1;
#X obj 269 212 s osc1;
#X obj 272 453 s osc2;
#X obj 275 695 s osc3;
#X obj 455 463 s osc2;
#X obj 385 696 s osc3;
#X obj -114 680 udpsend;
#X obj -114 702 tgl 15 0 empty empty empty 17 7 0 10 -4034 -1 -1 1
1;
#X msg -63 660 disconnect;
#X obj -114 656 packOSC;
#X obj 92 683 udpsend;
#X obj 88 703 tgl 15 0 empty empty empty 17 7 0 10 -4034 -1 -1 1 1
;
#X msg 146 661 disconnect;
#X obj 92 659 packOSC;
#X obj -114 636 r osc2;
#X obj 92 639 r osc3;
#X obj -1 611 cnv 15 240 20 empty empty empty 20 12 0 14 -204786 -66577
0;
#X text 1 611 blink LED:;
#X text 134 611 LED On:;
#X text 179 609 q w e;
#X msg -293 698 connect 192.168.0.106 9000;
#X msg -89 699 connect 192.168.0.107 9000;
#X msg 109 701 connect 192.168.0.108 9000;
#X obj 379 4 r camalpha1;
#X obj 383 464 r camalpha3;
#X obj 381 232 r camalpha2;
#X text 66 611 1 2 3;
#X text 334 653 comment;
#X text 292 574 comment;
#X obj 711 194 bng 15 250 50 0 empty empty empty 17 7 0 10 -262144
-1 -1;
#X obj 453 3 r none1;
#X obj 497 232 r none2;
#X obj 503 462 r none3;
#X obj 505 3 r neg1;
#X obj 547 232 r neg2;
#X obj 553 462 r neg3;
#X obj 712 220 s none1;
#X obj 718 315 bng 15 250 50 0 empty empty empty 17 7 0 10 -262144
-1 -1;
#X obj 716 364 s neg1;
#X obj 715 383 s neg2;
#X obj 718 406 s neg3;
#X obj 712 241 s none2;
#X obj 712 262 s none3;
#X obj 705 2 tgl 15 0 empty empty empty 17 7 0 10 -262144 -1 -1 1 1
;
#X text 702 21 fullscreen;
#X obj 381 21 EACamera;
#X obj 551 1 r strain1;
#X obj 589 232 r strain2;
#X obj 601 462 r strain3;
#X obj 382 250 EACamera;
#X obj 385 483 EACamera;
#X obj 627 0 r strainV1;
#X obj 669 462 r strainV3;
#X obj 650 232 r strainV2;
#X connect 1 0 2 0;
#X connect 3 0 1 0;
#X connect 5 0 12 0;
#X connect 7 0 13 0;
#X connect 8 0 14 0;
#X connect 9 0 10 0;
#X connect 10 0 1 0;
#X connect 17 0 18 0;
#X connect 19 0 17 0;
#X connect 20 0 17 0;
#X connect 21 0 22 0;
#X connect 23 0 21 0;
#X connect 24 0 21 0;
#X connect 25 0 20 0;
#X connect 26 0 24 0;
#X connect 31 0 1 0;
#X connect 32 0 17 0;
#X connect 33 0 21 0;
#X connect 34 0 56 0;
#X connect 35 0 61 0;
#X connect 36 0 60 0;
#X connect 40 0 47 0;
#X connect 40 0 52 0;
#X connect 40 0 53 0;
#X connect 41 0 56 1;
#X connect 42 0 60 1;
#X connect 43 0 61 1;
#X connect 44 0 56 2;
#X connect 45 0 60 2;
#X connect 46 0 61 2;
#X connect 48 0 49 0;
#X connect 48 0 50 0;
#X connect 48 0 51 0;
#X connect 54 0 56 5;
#X connect 54 0 60 5;
#X connect 54 0 61 5;
#X connect 56 0 11 0;
#X connect 57 0 56 3;
#X connect 58 0 60 3;
#X connect 59 0 61 3;
#X connect 60 0 15 0;
#X connect 61 0 16 0;
#X connect 62 0 56 4;
#X connect 63 0 61 4;
#X connect 64 0 60 4;
