#N canvas 604 95 1406 825 10;
#X declare -lib mrpeach;
#X obj 316 -7 import mrpeach;
#X obj 310 562 udpsend;
#X obj 310 597 tgl 15 0 empty empty empty 17 7 0 10 -262144 -1 -1 0
1;
#X msg 367 545 disconnect;
#X obj 310 366 packOSC;
#X msg 270 281 send /fader \$1;
#X obj 270 117 vsl 15 128 0 10 0 0 empty empty empty 0 -9 0 10 -262144
-1 -1 0 1;
#X obj 482 113 vsl 15 128 0 10 0 0 empty empty empty 0 -9 0 10 -262144
-1 -1 0 1;
#X msg 486 288 send /control \$1;
#X obj 295 69 knob 32 32 0 10 0 0 empty empty empty 0 -8 0 8 -262144
-1 -1 0 1;
#X obj 379 69 knob 32 32 0 10 0 0 empty empty empty 0 -8 0 8 -262144
-1 -1 310 1;
#X msg 295 163 send /rotationZ \$1;
#X msg 330 220 send /rotationX \$1;
#X msg 367 522 connect 192.168.1.4 9000;
#X msg 147 375 send /control/p1 \$1;
#X floatatom 148 338 5 0 0 0 - - -;
#X obj 794 8 EACamera;
#X obj 554 23 vsl 15 128 0 180 0 0 empty empty empty 0 -9 0 10 -262144
-1 -1 0 1;
#X obj 734 17 vsl 15 128 0 255 0 0 empty empty empty 0 -9 0 10 -262144
-1 -1 0 1;
#X obj 736 155 int;
#X msg 367 497 connect 192.168.0.112 9000;
#X obj 767 155 int;
#X obj 766 15 vsl 15 128 0 255 0 0 empty empty empty 0 -9 0 10 -262144
-1 -1 0 1;
#X obj 598 13 vsl 15 128 0 127 0 0 empty empty empty 0 -9 0 10 -262144
-1 -1 0 1;
#X obj 595 166 int;
#X obj 632 28 vsl 15 128 0 127 0 0 empty empty empty 0 -9 0 10 -262144
-1 -1 0 1;
#X obj 631 166 int;
#X obj 555 187 int;
#X obj 732 214 vsl 15 128 0 255 0 0 empty empty empty 0 -9 0 10 -262144
-1 -1 0 1;
#X obj 732 365 int;
#X obj 761 209 vsl 15 128 0 255 0 0 empty empty empty 0 -9 0 10 -262144
-1 -1 0 1;
#X obj 762 359 int;
#X msg 551 226 send /arduino S1P\$1;
#X msg 550 265 send /arduino A2V\$1;
#X msg 547 287 send /arduino A1V\$1;
#X msg 548 310 send /arduino M1D0S\$1;
#X msg 561 329 send /arduino M1D1S\$1;
#X msg 546 350 send /arduino M2D0S\$1;
#X msg 571 371 send /arduino M2D1S\$1;
#X msg 548 396 send /arduinoP1;
#X msg 661 420 send /arduinoP0;
#X obj -454 8 EAFostexMixTabPanel;
#X obj 374 281 r packosc;
#X msg 359 455 connect 192.168.0.103 9000;
#X obj 156 8 EAVideoPlay;
#X connect 1 0 2 0;
#X connect 3 0 1 0;
#X connect 4 0 1 0;
#X connect 5 0 4 0;
#X connect 6 0 5 0;
#X connect 7 0 8 0;
#X connect 8 0 4 0;
#X connect 9 0 11 0;
#X connect 10 0 12 0;
#X connect 11 0 4 0;
#X connect 12 0 4 0;
#X connect 13 0 1 0;
#X connect 14 0 4 0;
#X connect 15 0 14 0;
#X connect 16 0 4 0;
#X connect 17 0 27 0;
#X connect 18 0 19 0;
#X connect 19 0 35 0;
#X connect 20 0 1 0;
#X connect 21 0 37 0;
#X connect 22 0 21 0;
#X connect 23 0 24 0;
#X connect 24 0 34 0;
#X connect 25 0 26 0;
#X connect 26 0 33 0;
#X connect 27 0 32 0;
#X connect 28 0 29 0;
#X connect 29 0 36 0;
#X connect 30 0 31 0;
#X connect 31 0 38 0;
#X connect 32 0 4 0;
#X connect 33 0 4 0;
#X connect 34 0 4 0;
#X connect 35 0 4 0;
#X connect 36 0 4 0;
#X connect 37 0 4 0;
#X connect 38 0 4 0;
#X connect 39 0 4 0;
#X connect 40 0 4 0;
#X connect 42 0 4 0;
#X connect 43 0 1 0;
#X connect 44 0 4 0;
