#N canvas 594 494 450 300 10;
#X obj 70 27 inlet;
#X obj 70 221 outlet;
#X obj 70 116 * 2;
#X text 70 241 a general scaler for easy changing centrally;
#X obj 70 171 int;
#X connect 0 0 2 0;
#X connect 2 0 4 0;
#X connect 4 0 1 0;
